<svg width="203" height="60" viewBox="0 0 203 60" fill="none" xmlns="http://www.w3.org/2000/svg">
<g clip-path="url(#clip0)">
<path d="M29.216 56.9856C43.693 56.9856 55.429 45.1274 55.429 30.4996C55.429 15.8718 43.693 4.01367 29.216 4.01367C14.7389 4.01367 3.00293 15.8718 3.00293 30.4996C3.00293 45.1274 14.7389 56.9856 29.216 56.9856Z" fill="white" stroke="url(#paint0_linear)" stroke-width="3" stroke-miterlimit="10"/>
<path d="M29 56C42.8071 56 54 44.5833 54 30.5C54 16.4167 42.8071 5 29 5C15.1929 5 4 16.4167 4 30.5C4 44.5833 15.1929 56 29 56Z" fill="black"/>
<path d="M18.0908 41.4456V19.1508C18.3043 18.2737 18.7126 17.4573 19.2849 16.7634C19.8572 16.0695 20.5783 15.5164 21.3937 15.1461C22.8262 14.7898 24.3229 14.7898 25.7555 15.1461L45.0483 27.0288C45.8161 27.9419 46.2376 29.1011 46.2376 30.2993C46.2376 31.4975 45.8161 32.6566 45.0483 33.5698L25.4913 45.3126C24.1035 45.6699 22.6493 45.6699 21.2615 45.3126C19.7411 44.4947 18.6016 43.1035 18.0908 41.4414V41.4456Z" fill="white"/>
<path d="M27.1016 35.3056V25.6943H23.9308V35.3056H27.1016Z" fill="url(#paint1_linear)"/>
<path d="M32.3867 35.3056V25.6943H29.216V35.3056H32.3867Z" fill="url(#paint2_linear)"/>
<path d="M79.4651 18.2359H71.8256V38.0072H69.7118V18.2359H62.0723V16.3438H79.4651V18.2359Z" fill="white"/>
<path d="M83.1497 42.8887C83.3111 42.9078 83.4663 42.9226 83.6173 42.9332C83.7683 42.9438 83.9151 42.9502 84.0556 42.9502C84.3498 42.963 84.6432 42.911 84.9154 42.7976C85.1853 42.6404 85.404 42.4069 85.5445 42.1259C85.8074 41.645 86.0345 41.145 86.2239 40.63C86.4756 39.9788 86.8335 39.1044 87.2976 38.0068L80.4424 22.1152H82.5562L88.3839 36.0998L93.7901 22.1152H95.7529L87.5891 42.6133C87.3597 43.2146 86.9796 43.7454 86.4861 44.1537C85.9716 44.593 85.2726 44.8119 84.389 44.8105C84.1793 44.8105 83.9969 44.8105 83.8165 44.7957C83.6362 44.7809 83.4118 44.7597 83.1518 44.7194L83.1497 42.8887Z" fill="white"/>
<path d="M106.643 38.3207C105.395 38.3444 104.169 37.9878 103.124 37.2973C102.124 36.6339 101.284 35.7528 100.664 34.7186V44.512H98.6094V22.1091H100.453V25.1836C101.092 24.191 101.95 23.3608 102.959 22.7575C103.971 22.1408 105.132 21.8188 106.314 21.8273C107.347 21.8196 108.368 22.0577 109.294 22.5223C110.189 22.9721 110.989 23.5939 111.649 24.353C112.321 25.1298 112.849 26.0236 113.205 26.991C113.574 27.976 113.763 29.0207 113.763 30.074C113.77 31.155 113.597 32.2295 113.251 33.2523C112.928 34.2122 112.43 35.1026 111.783 35.8776C111.158 36.6237 110.387 37.2311 109.518 37.6617C108.624 38.1043 107.639 38.3299 106.643 38.3207ZM106.069 36.49C106.87 36.4991 107.662 36.3107 108.375 35.9412C109.059 35.5833 109.664 35.0905 110.156 34.4919C110.654 33.8856 111.038 33.1927 111.29 32.4471C111.551 31.6866 111.683 30.8873 111.682 30.0825C111.686 29.2472 111.532 28.4188 111.229 27.6415C110.941 26.8906 110.521 26.198 109.99 25.5968C109.47 25.0093 108.839 24.5324 108.134 24.1941C107.414 23.8465 106.625 23.669 105.827 23.675C105.264 23.6822 104.707 23.7905 104.181 23.9949C103.613 24.2042 103.075 24.4892 102.581 24.8425C102.1 25.1913 101.675 25.6138 101.323 26.0947C100.986 26.5355 100.764 27.0539 100.675 27.6034V32.4768C100.914 33.0433 101.223 33.5767 101.596 34.0638C101.954 34.5446 102.378 34.9725 102.854 35.3352C103.319 35.6903 103.832 35.9758 104.378 36.1827C104.92 36.3836 105.492 36.4848 106.069 36.4815V36.49Z" fill="white"/>
<path d="M124.037 38.3208C122.953 38.3324 121.881 38.1084 120.891 37.664C119.95 37.2385 119.103 36.6268 118.4 35.865C117.693 35.097 117.135 34.2014 116.756 33.2249C116.358 32.2051 116.158 31.1174 116.166 30.0212C116.158 28.9402 116.359 27.8679 116.756 26.864C117.131 25.903 117.684 25.0229 118.385 24.2705C119.091 23.519 119.938 22.9169 120.876 22.4992C122.337 21.8329 123.968 21.6469 125.54 21.9674C127.111 22.2879 128.543 23.0986 129.634 24.2854C131.043 25.8432 131.82 27.8808 131.808 29.9915V30.481C131.813 30.5934 131.803 30.706 131.779 30.8157H118.299C118.351 31.6338 118.55 32.4352 118.888 33.1804C119.202 33.8783 119.637 34.514 120.172 35.0577C120.687 35.5816 121.297 36.0009 121.969 36.293C122.65 36.5906 123.385 36.7414 124.127 36.7359C124.637 36.7362 125.145 36.6649 125.637 36.524C126.122 36.3896 126.589 36.1953 127.027 35.9455C127.449 35.7006 127.835 35.3975 128.174 35.045C128.505 34.7055 128.771 34.3067 128.958 33.869L130.741 34.3585C130.497 34.9508 130.149 35.4935 129.713 35.9604C129.26 36.4471 128.742 36.8678 128.174 37.2105C127.571 37.5749 126.92 37.8523 126.241 38.0348C125.522 38.2284 124.78 38.3246 124.037 38.3208ZM129.845 29.2202C129.753 27.6527 129.091 26.1748 127.987 25.0694C127.475 24.5611 126.871 24.1575 126.207 23.8807C125.522 23.5945 124.788 23.4504 124.047 23.4569C123.302 23.4515 122.562 23.5955 121.872 23.8807C121.203 24.1547 120.593 24.5585 120.077 25.0694C119.552 25.5942 119.132 26.2156 118.838 26.9001C118.521 27.635 118.332 28.4201 118.28 29.2202H129.845Z" fill="white"/>
<path d="M147.921 20.4012C147.252 19.6644 146.426 19.0907 145.505 18.723C144.412 18.2808 143.241 18.0646 142.064 18.0874C140.171 18.0874 138.792 18.4483 137.926 19.1701C137.061 19.892 136.628 20.873 136.628 22.1132C136.606 22.6683 136.725 23.2198 136.974 23.7151C137.235 24.1628 137.605 24.5361 138.048 24.8C138.628 25.1479 139.253 25.4145 139.904 25.5924C140.659 25.817 141.55 26.0409 142.578 26.2641C143.624 26.4818 144.657 26.7577 145.673 27.0905C146.504 27.3546 147.292 27.74 148.013 28.2347C148.63 28.6615 149.137 29.231 149.492 29.8959C149.857 30.655 150.034 31.493 150.005 32.3368C150.028 33.236 149.831 34.1268 149.431 34.9303C149.05 35.6613 148.501 36.2892 147.831 36.761C147.091 37.275 146.261 37.6431 145.385 37.8459C144.366 38.0872 143.322 38.2046 142.276 38.1955C138.954 38.1955 136.088 37.1481 133.678 35.0532L134.726 33.3136C135.141 33.7494 135.601 34.1381 136.1 34.4727C136.659 34.8535 137.256 35.1758 137.88 35.4346C138.557 35.7148 139.259 35.9277 139.977 36.0703C140.753 36.2258 141.542 36.3025 142.332 36.2991C144.043 36.2991 145.377 35.9891 146.333 35.3689C147.29 34.7488 147.768 33.808 147.768 32.5466C147.789 31.9545 147.648 31.3681 147.361 30.8515C147.054 30.3608 146.635 29.9523 146.138 29.6607C145.503 29.2856 144.823 28.9937 144.115 28.7919C143.309 28.549 142.373 28.3046 141.307 28.0588C140.179 27.7961 139.192 27.522 138.348 27.2367C137.584 26.9944 136.861 26.6373 136.203 26.1772C135.645 25.7808 135.194 25.2508 134.89 24.6347C134.578 23.9381 134.43 23.1781 134.458 22.4141C134.442 21.4931 134.633 20.5804 135.016 19.7443C135.38 18.9736 135.924 18.3039 136.601 17.7929C137.329 17.2531 138.148 16.8498 139.017 16.602C140.019 16.318 141.056 16.1796 142.097 16.191C143.4 16.1687 144.696 16.3907 145.918 16.8457C147.028 17.2791 148.055 17.9043 148.953 18.6934L147.921 20.4012Z" fill="white"/>
<path d="M160 38.3212C158.917 38.3364 157.843 38.1122 156.854 37.6644C155.925 37.2405 155.088 36.634 154.392 35.8803C153.692 35.1184 153.144 34.2269 152.778 33.255C152.007 31.2214 152.012 28.9706 152.792 26.9407C153.168 25.97 153.72 25.0794 154.422 24.3154C155.123 23.5569 155.964 22.9431 156.896 22.508C157.871 22.0544 158.933 21.825 160.006 21.8363C161.085 21.8259 162.152 22.0552 163.133 22.508C164.066 22.9391 164.908 23.5501 165.61 24.3069C166.311 25.0709 166.864 25.9615 167.239 26.9322C168.02 28.9621 168.025 31.2129 167.254 33.2465C166.888 34.2185 166.339 35.1099 165.639 35.8718C164.94 36.6278 164.098 37.2344 163.162 37.6559C162.168 38.1056 161.089 38.3326 160 38.3212ZM154.294 30.1445C154.286 30.9946 154.44 31.8384 154.747 32.6299C155.034 33.3689 155.448 34.0511 155.969 34.645C156.475 35.2179 157.092 35.6795 157.781 36.001C158.476 36.3274 159.234 36.4945 160 36.4905C160.768 36.4947 161.528 36.3222 162.221 35.9862C162.912 35.6533 163.533 35.1869 164.047 34.6132C164.579 34.0195 164.998 33.3322 165.285 32.5854C165.889 30.9781 165.889 29.2028 165.285 27.5954C165 26.8428 164.581 26.1496 164.047 25.5507C163.532 24.9785 162.911 24.5123 162.221 24.1777C161.527 23.8433 160.768 23.6716 160 23.6755C159.237 23.6705 158.483 23.8423 157.796 24.1777C157.108 24.5173 156.493 24.9894 155.984 25.5677C155.451 26.1724 155.032 26.8704 154.747 27.6272C154.442 28.4275 154.288 29.2785 154.294 30.136V30.1445Z" fill="white"/>
<path d="M184.489 38.0075H182.436V29.1273C182.436 27.2372 182.157 25.8642 181.598 25.0082C181.038 24.1521 180.188 23.7284 179.046 23.7368C178.427 23.739 177.813 23.8524 177.234 24.0716C176.629 24.2961 176.063 24.615 175.556 25.0166C175.034 25.4334 174.572 25.9211 174.183 26.466C173.786 27.0137 173.49 27.6287 173.308 28.2818V38.016H171.253V22.1244H173.126V25.7265C173.779 24.5556 174.734 23.5855 175.889 22.919C177.073 22.2138 178.424 21.8476 179.798 21.8595C180.562 21.8365 181.32 22.0038 182.004 22.3469C182.6 22.6656 183.101 23.1397 183.454 23.7199C183.844 24.3878 184.11 25.1225 184.238 25.8875C184.406 26.8235 184.487 27.7734 184.479 28.7247L184.489 38.0075Z" fill="white"/>
<path d="M195.18 38.2213C194.149 38.234 193.129 37.9987 192.206 37.5348C191.322 37.0869 190.532 36.4702 189.88 35.719C189.219 34.9563 188.702 34.0771 188.356 33.1255C187.995 32.1599 187.81 31.1361 187.811 30.1039C187.807 29.0288 187.986 27.9609 188.339 26.9468C188.669 25.9797 189.176 25.084 189.834 24.3067C190.475 23.5559 191.26 22.944 192.141 22.5077C193.067 22.0534 194.085 21.8234 195.115 21.8361C196.361 21.8033 197.587 22.1583 198.627 22.8531C199.624 23.5458 200.484 24.4203 201.162 25.4318V22.1052H203.006V38.0646C203.022 39.0719 202.807 40.0693 202.377 40.978C201.983 41.7985 201.416 42.5217 200.716 43.0969C199.991 43.6781 199.16 44.11 198.271 44.3682C197.306 44.6567 196.303 44.7995 195.297 44.792C193.48 44.792 192.02 44.4664 190.918 43.8152C189.823 43.1766 188.9 42.2758 188.23 41.192L189.488 40.1855C190.073 41.1664 190.936 41.9474 191.965 42.4273C193.007 42.9081 194.141 43.1525 195.287 43.1435C196.023 43.148 196.755 43.0402 197.459 42.8236C198.112 42.6262 198.722 42.3055 199.256 41.8785C199.778 41.4503 200.196 40.9075 200.479 40.2915C200.794 39.5879 200.949 38.8218 200.932 38.0497V34.9307C200.335 35.9432 199.48 36.7758 198.457 37.342C197.458 37.916 196.329 38.2189 195.18 38.2213ZM195.754 36.4818C196.363 36.4808 196.967 36.3666 197.535 36.1449C198.105 35.9291 198.64 35.6261 199.12 35.2464C199.578 34.8849 199.98 34.4564 200.313 33.9751C200.616 33.5447 200.83 33.0568 200.942 32.5406V27.6333C200.721 27.0612 200.416 26.5262 200.036 26.0463C199.665 25.5686 199.228 25.1476 198.738 24.7961C198.26 24.4514 197.737 24.1741 197.184 23.9719C196.647 23.7717 196.079 23.6684 195.507 23.6668C194.682 23.6521 193.867 23.8458 193.135 24.2304C192.452 24.5978 191.851 25.1025 191.369 25.7136C190.881 26.3321 190.507 27.0349 190.266 27.788C190.017 28.5459 189.89 29.3392 189.889 30.1378C189.885 30.9731 190.039 31.8015 190.342 32.5788C190.63 33.3291 191.057 34.0172 191.6 34.6065C192.125 35.1813 192.755 35.6476 193.456 35.9796C194.175 36.3188 194.961 36.4904 195.754 36.4818Z" fill="white"/>
</g>
<defs>
<linearGradient id="paint0_linear" x1="2.68837" y1="30.4996" x2="55.7435" y2="30.4996" gradientUnits="userSpaceOnUse">
<stop offset="0.4375" stop-color="#55287D"/>
<stop offset="0.98" stop-color="#CD2288"/>
</linearGradient>
<linearGradient id="paint1_linear" x1="3092.62" y1="1403.59" x2="3236.45" y2="1403.59" gradientUnits="userSpaceOnUse">
<stop stop-color="#55287D"/>
<stop offset="0.24" stop-color="#55287D"/>
<stop offset="0.51" stop-color="#7B2681"/>
<stop offset="0.66" stop-color="#942685"/>
<stop offset="0.78" stop-color="#A42483"/>
<stop offset="0.89" stop-color="#B6208C"/>
<stop offset="0.98" stop-color="#CD2288"/>
</linearGradient>
<linearGradient id="paint2_linear" x1="3337.61" y1="1403.59" x2="3481.44" y2="1403.59" gradientUnits="userSpaceOnUse">
<stop stop-color="#55287D"/>
<stop offset="0.24" stop-color="#55287D"/>
<stop offset="0.51" stop-color="#7B2681"/>
<stop offset="0.66" stop-color="#942685"/>
<stop offset="0.78" stop-color="#A42483"/>
<stop offset="0.89" stop-color="#B6208C"/>
<stop offset="0.98" stop-color="#CD2288"/>
</linearGradient>
<clipPath id="clip0">
<rect width="203" height="60" fill="white"/>
</clipPath>
</defs>
</svg>
