<svg xmlns="http://www.w3.org/2000/svg" xmlns:xlink="http://www.w3.org/1999/xlink" width="35" height="496" viewBox="0 0 35 496"><defs><style>.a{fill:#fff;stroke:#707070;}.b{clip-path:url(#a);}.c{fill:none;stroke:#000;opacity:0.2;}</style><clipPath id="a"><rect class="a" width="35" height="496" transform="translate(585 3319)"/></clipPath></defs><g class="b" transform="translate(-585 -3319)"><g transform="translate(0 299)"><path class="c" d="M318,1847h34.895" transform="translate(266.605 1173.5)"/><path class="c" d="M318,1847h34.895" transform="translate(266.605 1244.5)"/><path class="c" d="M318,1847h34.895" transform="translate(266.605 1315.5)"/><path class="c" d="M318,1847h34.895" transform="translate(266.605 1386.5)"/><path class="c" d="M318,1847h34.895" transform="translate(266.605 1457.5)"/><path class="c" d="M318,1847h34.895" transform="translate(266.605 1528.5)"/><path class="c" d="M318,1847h34.895" transform="translate(266.605 1597.5)"/><path class="c" d="M318,1847h34.895" transform="translate(266.605 1668.5)"/><path class="c" d="M318,1847h11.471" transform="translate(290.029 1180.5)"/><path class="c" d="M318,1847h11.471" transform="translate(290.029 1251.5)"/><path class="c" d="M318,1847h11.471" transform="translate(290.029 1322.5)"/><path class="c" d="M318,1847h11.471" transform="translate(290.029 1393.5)"/><path class="c" d="M318,1847h11.471" transform="translate(290.029 1464.5)"/><path class="c" d="M318,1847h11.471" transform="translate(290.029 1533.5)"/><path class="c" d="M318,1847h11.471" transform="translate(290.029 1604.5)"/><path class="c" d="M318,1847h11.471" transform="translate(290.029 1187.5)"/><path class="c" d="M318,1847h11.471" transform="translate(290.029 1258.5)"/><path class="c" d="M318,1847h11.471" transform="translate(290.029 1329.5)"/><path class="c" d="M318,1847h11.471" transform="translate(290.029 1400.5)"/><path class="c" d="M318,1847h11.471" transform="translate(290.029 1471.5)"/><path class="c" d="M318,1847h11.471" transform="translate(290.029 1540.5)"/><path class="c" d="M318,1847h11.471" transform="translate(290.029 1611.5)"/><path class="c" d="M318,1847h11.471" transform="translate(290.029 1194.5)"/><path class="c" d="M318,1847h11.471" transform="translate(290.029 1265.5)"/><path class="c" d="M318,1847h11.471" transform="translate(290.029 1336.5)"/><path class="c" d="M318,1847h11.471" transform="translate(290.029 1407.5)"/><path class="c" d="M318,1847h11.471" transform="translate(290.029 1478.5)"/><path class="c" d="M318,1847h11.471" transform="translate(290.029 1547.5)"/><path class="c" d="M318,1847h11.471" transform="translate(290.029 1618.5)"/><path class="c" d="M318,1847h11.471" transform="translate(290.029 1201.5)"/><path class="c" d="M318,1847h11.471" transform="translate(290.029 1272.5)"/><path class="c" d="M318,1847h11.471" transform="translate(290.029 1343.5)"/><path class="c" d="M318,1847h11.471" transform="translate(290.029 1414.5)"/><path class="c" d="M318,1847h11.471" transform="translate(290.029 1485.5)"/><path class="c" d="M318,1847h11.471" transform="translate(290.029 1554.5)"/><path class="c" d="M318,1847h11.471" transform="translate(290.029 1625.5)"/><path class="c" d="M318,1847h22.942" transform="translate(278.558 1209.5)"/><path class="c" d="M318,1847h22.942" transform="translate(278.558 1280.5)"/><path class="c" d="M318,1847h22.942" transform="translate(278.558 1351.5)"/><path class="c" d="M318,1847h22.942" transform="translate(278.558 1422.5)"/><path class="c" d="M318,1847h22.942" transform="translate(278.558 1493.5)"/><path class="c" d="M318,1847h22.942" transform="translate(278.558 1562.5)"/><path class="c" d="M318,1847h22.942" transform="translate(278.558 1633.5)"/><path class="c" d="M318,1847h11.471" transform="translate(290.029 1216.5)"/><path class="c" d="M318,1847h11.471" transform="translate(290.029 1287.5)"/><path class="c" d="M318,1847h11.471" transform="translate(290.029 1358.5)"/><path class="c" d="M318,1847h11.471" transform="translate(290.029 1429.5)"/><path class="c" d="M318,1847h11.471" transform="translate(290.029 1500.5)"/><path class="c" d="M318,1847h11.471" transform="translate(290.029 1569.5)"/><path class="c" d="M318,1847h11.471" transform="translate(290.029 1640.5)"/><path class="c" d="M318,1847h11.471" transform="translate(290.029 1223.5)"/><path class="c" d="M318,1847h11.471" transform="translate(290.029 1294.5)"/><path class="c" d="M318,1847h11.471" transform="translate(290.029 1365.5)"/><path class="c" d="M318,1847h11.471" transform="translate(290.029 1436.5)"/><path class="c" d="M318,1847h11.471" transform="translate(290.029 1507.5)"/><path class="c" d="M318,1847h11.471" transform="translate(290.029 1576.5)"/><path class="c" d="M318,1847h11.471" transform="translate(290.029 1647.5)"/><path class="c" d="M318,1847h11.471" transform="translate(290.029 1230.5)"/><path class="c" d="M318,1847h11.471" transform="translate(290.029 1301.5)"/><path class="c" d="M318,1847h11.471" transform="translate(290.029 1372.5)"/><path class="c" d="M318,1847h11.471" transform="translate(290.029 1443.5)"/><path class="c" d="M318,1847h11.471" transform="translate(290.029 1514.5)"/><path class="c" d="M318,1847h11.471" transform="translate(290.029 1583.5)"/><path class="c" d="M318,1847h11.471" transform="translate(290.029 1654.5)"/><path class="c" d="M318,1847h11.471" transform="translate(290.029 1237.5)"/><path class="c" d="M318,1847h11.471" transform="translate(290.029 1308.5)"/><path class="c" d="M318,1847h11.471" transform="translate(290.029 1379.5)"/><path class="c" d="M318,1847h11.471" transform="translate(290.029 1450.5)"/><path class="c" d="M318,1847h11.471" transform="translate(290.029 1521.5)"/><path class="c" d="M318,1847h11.471" transform="translate(290.029 1590.5)"/><path class="c" d="M318,1847h11.471" transform="translate(290.029 1661.5)"/></g><g transform="translate(0 794)"><path class="c" d="M318,1847h34.895" transform="translate(266.605 1244.5)"/><path class="c" d="M318,1847h34.895" transform="translate(266.605 1315.5)"/><path class="c" d="M318,1847h34.895" transform="translate(266.605 1386.5)"/><path class="c" d="M318,1847h34.895" transform="translate(266.605 1457.5)"/><path class="c" d="M318,1847h34.895" transform="translate(266.605 1528.5)"/><path class="c" d="M318,1847h34.895" transform="translate(266.605 1597.5)"/><path class="c" d="M318,1847h34.895" transform="translate(266.605 1668.5)"/><path class="c" d="M318,1847h11.471" transform="translate(290.029 1180.5)"/><path class="c" d="M318,1847h11.471" transform="translate(290.029 1251.5)"/><path class="c" d="M318,1847h11.471" transform="translate(290.029 1322.5)"/><path class="c" d="M318,1847h11.471" transform="translate(290.029 1393.5)"/><path class="c" d="M318,1847h11.471" transform="translate(290.029 1464.5)"/><path class="c" d="M318,1847h11.471" transform="translate(290.029 1533.5)"/><path class="c" d="M318,1847h11.471" transform="translate(290.029 1604.5)"/><path class="c" d="M318,1847h11.471" transform="translate(290.029 1187.5)"/><path class="c" d="M318,1847h11.471" transform="translate(290.029 1258.5)"/><path class="c" d="M318,1847h11.471" transform="translate(290.029 1329.5)"/><path class="c" d="M318,1847h11.471" transform="translate(290.029 1400.5)"/><path class="c" d="M318,1847h11.471" transform="translate(290.029 1471.5)"/><path class="c" d="M318,1847h11.471" transform="translate(290.029 1540.5)"/><path class="c" d="M318,1847h11.471" transform="translate(290.029 1611.5)"/><path class="c" d="M318,1847h11.471" transform="translate(290.029 1194.5)"/><path class="c" d="M318,1847h11.471" transform="translate(290.029 1265.5)"/><path class="c" d="M318,1847h11.471" transform="translate(290.029 1336.5)"/><path class="c" d="M318,1847h11.471" transform="translate(290.029 1407.5)"/><path class="c" d="M318,1847h11.471" transform="translate(290.029 1478.5)"/><path class="c" d="M318,1847h11.471" transform="translate(290.029 1547.5)"/><path class="c" d="M318,1847h11.471" transform="translate(290.029 1618.5)"/><path class="c" d="M318,1847h11.471" transform="translate(290.029 1201.5)"/><path class="c" d="M318,1847h11.471" transform="translate(290.029 1272.5)"/><path class="c" d="M318,1847h11.471" transform="translate(290.029 1343.5)"/><path class="c" d="M318,1847h11.471" transform="translate(290.029 1414.5)"/><path class="c" d="M318,1847h11.471" transform="translate(290.029 1485.5)"/><path class="c" d="M318,1847h11.471" transform="translate(290.029 1554.5)"/><path class="c" d="M318,1847h11.471" transform="translate(290.029 1625.5)"/><path class="c" d="M318,1847h22.942" transform="translate(278.558 1209.5)"/><path class="c" d="M318,1847h22.942" transform="translate(278.558 1280.5)"/><path class="c" d="M318,1847h22.942" transform="translate(278.558 1351.5)"/><path class="c" d="M318,1847h22.942" transform="translate(278.558 1422.5)"/><path class="c" d="M318,1847h22.942" transform="translate(278.558 1493.5)"/><path class="c" d="M318,1847h22.942" transform="translate(278.558 1562.5)"/><path class="c" d="M318,1847h22.942" transform="translate(278.558 1633.5)"/><path class="c" d="M318,1847h11.471" transform="translate(290.029 1216.5)"/><path class="c" d="M318,1847h11.471" transform="translate(290.029 1287.5)"/><path class="c" d="M318,1847h11.471" transform="translate(290.029 1358.5)"/><path class="c" d="M318,1847h11.471" transform="translate(290.029 1429.5)"/><path class="c" d="M318,1847h11.471" transform="translate(290.029 1500.5)"/><path class="c" d="M318,1847h11.471" transform="translate(290.029 1569.5)"/><path class="c" d="M318,1847h11.471" transform="translate(290.029 1640.5)"/><path class="c" d="M318,1847h11.471" transform="translate(290.029 1223.5)"/><path class="c" d="M318,1847h11.471" transform="translate(290.029 1294.5)"/><path class="c" d="M318,1847h11.471" transform="translate(290.029 1365.5)"/><path class="c" d="M318,1847h11.471" transform="translate(290.029 1436.5)"/><path class="c" d="M318,1847h11.471" transform="translate(290.029 1507.5)"/><path class="c" d="M318,1847h11.471" transform="translate(290.029 1576.5)"/><path class="c" d="M318,1847h11.471" transform="translate(290.029 1647.5)"/><path class="c" d="M318,1847h11.471" transform="translate(290.029 1230.5)"/><path class="c" d="M318,1847h11.471" transform="translate(290.029 1301.5)"/><path class="c" d="M318,1847h11.471" transform="translate(290.029 1372.5)"/><path class="c" d="M318,1847h11.471" transform="translate(290.029 1443.5)"/><path class="c" d="M318,1847h11.471" transform="translate(290.029 1514.5)"/><path class="c" d="M318,1847h11.471" transform="translate(290.029 1583.5)"/><path class="c" d="M318,1847h11.471" transform="translate(290.029 1654.5)"/><path class="c" d="M318,1847h11.471" transform="translate(290.029 1237.5)"/><path class="c" d="M318,1847h11.471" transform="translate(290.029 1308.5)"/><path class="c" d="M318,1847h11.471" transform="translate(290.029 1379.5)"/><path class="c" d="M318,1847h11.471" transform="translate(290.029 1450.5)"/><path class="c" d="M318,1847h11.471" transform="translate(290.029 1521.5)"/><path class="c" d="M318,1847h11.471" transform="translate(290.029 1590.5)"/><path class="c" d="M318,1847h11.471" transform="translate(290.029 1661.5)"/></g></g></svg>