<svg xmlns="http://www.w3.org/2000/svg" width="114" height="899" viewBox="0 0 114 899"><defs><style>.a{opacity:0.1;}.b,.c{fill:#fff;}.c{font-size:14px;font-family:AvenirNextCyr-Regular, Avenir Next Cyr;}.d{fill:none;stroke:#fff;stroke-width:2px;}</style></defs><rect class="a" width="114" height="899"/><g transform="translate(-1 -121)"><path class="b" d="M93,67.5a16,16,0,0,1-16-16v-14h32v14a16,16,0,0,1-16,16Zm-1.5-33H77v-3A16,16,0,0,1,91.5,15.569V34.5Zm17.5,0H94.5V15.569A16,16,0,0,1,109,31.5v3Z" transform="translate(-36 617.5)"/><text class="c" transform="translate(54 377) rotate(90)"><tspan x="0" y="0">Крутите вниз, чтобы узнать больше</tspan></text><path class="d" d="M52.139,695.334l4.877,4.877,4.877-4.877"/></g></svg>