<svg width="52" height="52" viewBox="0 0 52 52" fill="none" xmlns="http://www.w3.org/2000/svg">
<path d="M26 6C13.4367 6 3.25 16.1867 3.25 28.75C3.25 41.3133 13.4367 51.5 26 51.5C38.5633 51.5 48.75 41.3133 48.75 28.75C48.75 16.1867 38.5633 6 26 6ZM33.3176 29.1004L22.227 37.1695C22.1662 37.2132 22.0945 37.2393 22.0198 37.2449C21.9452 37.2505 21.8704 37.2354 21.8037 37.2013C21.7371 37.1672 21.6811 37.1154 21.642 37.0516C21.6029 36.9877 21.5822 36.9143 21.582 36.8395V20.7113C21.5818 20.6363 21.6023 20.5627 21.6414 20.4986C21.6804 20.4345 21.7364 20.3825 21.8032 20.3484C21.87 20.3142 21.9449 20.2992 22.0197 20.305C22.0945 20.3108 22.1662 20.3372 22.227 20.3813L33.3176 28.4453C33.37 28.4824 33.4127 28.5315 33.4422 28.5884C33.4717 28.6454 33.4871 28.7087 33.4871 28.7729C33.4871 28.837 33.4717 28.9003 33.4422 28.9573C33.4127 29.0142 33.37 29.0633 33.3176 29.1004Z" fill="white"/>
</svg>
