<svg xmlns="http://www.w3.org/2000/svg" width="1281.59" height="741.849" viewBox="0 0 1281.59 741.849"><defs><style>.a{fill:#f3ebd5;stroke:#cfc098;}</style></defs><path class="a" d="M-1586.659,754.643c-4.711-.54-5.638-1.236-7.878-6.255l-1.236-2.7-7.878-.077c-4.711,0-8.573-.386-9.576-.926-.927-.541-5.252-6.025-9.577-12.126l-7.955-11.2h-12.511c-14.365,0-14.288,0-15.755-6.179-.541-2.163-1.236-4.093-1.622-4.248-.309-.231-1.777,1.081-3.166,2.857-3.167,4.093-3.707,4.479-5.252,3.707-.7-.386-4.866-10.813-9.654-24.328l-8.495-23.632-5.639-6.719c-4.865-5.792-5.56-7.028-5.174-8.881.231-1.158.231-2.085-.077-2.085s-5.1,1.39-10.58,3.166c-9.5,3.012-10.5,3.166-16.3,2.7-7.724-.541-8.65-1.313-7.414-5.947.85-3.244.85-3.4-1.313-5.174-4.171-3.4-6.333-4.171-10.272-3.631-2.549.31-3.862.155-4.4-.54-.464-.541-1.236-5.406-1.777-10.658-.541-5.329-1.313-10.272-1.7-10.967-.386-.772-3.938-2.394-8.34-3.784l-7.646-2.471-4.479,1.931-4.479,2.008-11.971-1.236c-8.8-.85-12.9-1-15.755-.386-5.174,1.081-29.193-2.549-37.147-5.561-4.943-1.853-5.484-1.93-6.333-.772-.927,1.313-.85,2.008,2.008,9.963,2.24,6.256,2.085,8.186-.386,8.186a13.714,13.714,0,0,1-4.943-1.544,15.442,15.442,0,0,0-5.792-1.544c-2.548,0-2.7.154-3.475,3.244-1.777,7.182-1.7,7.1-5.484,7.568-1.853.155-3.4.772-3.244,1.236a50.179,50.179,0,0,0,4.016,6.719c2.163,3.244,3.939,6.487,3.939,7.259,0,1.931-7.492,10.272-9.191,10.272-.695,0-3.012-1.236-5.1-2.7-4.325-3.09-5.792-3.321-7.724-1.158-2.162,2.317-3.475,1.93-8.34-2.549-3.939-3.552-4.557-4.479-5.252-8.186a21.628,21.628,0,0,0-1.236-4.865c-.463-.772-4.17-.541-7.8.54-1.776.541-1.853.464-7.337-6.1l-1.853-2.317-6.719,1.622c-7.8,1.776-9.113,1.313-10.658-3.63-.85-3.012-.927-3.09-4.4-2.935l-3.476.231-1.081-5.406c-2.858-14.9-2.163-13.36-6.41-15.214-3.862-1.622-4.325-2.239-4.789-7.182-.154-2.163-.386-2.317-2.857-2.163a40.141,40.141,0,0,0-4.4.618c-2.24.463-4.093-1.468-4.093-4.248,0-1.236-.386-2.317-.85-2.471s-5.406.464-11.044,1.391c-5.561.926-12.048,1.93-14.365,2.317-4.093.618-4.248.772-5.484,3.938-1.777,4.943-2.78,5.638-6.873,4.866s-4.865-1.7-6.1-7.338c-.541-2.317-1.313-4.479-1.7-4.711s-3.244.927-6.333,2.549c-5.329,2.78-5.638,3.089-5.869,5.869-.155,2.7-.618,3.245-5.639,6.411-2.935,1.931-5.56,3.938-5.715,4.479a4.959,4.959,0,0,0,.386,3.012c.618,1.622.541,2.78-.309,4.865-1.777,4.171-1.467,5.174,2.24,8.032,2.084,1.468,3.784,3.553,4.171,4.943,1,3.166,1.776,17.609,1.081,18.69a9.892,9.892,0,0,1-2.857,1.93c-1.313.617-2.318,1.467-2.24,1.931.077.386.386,1.544.618,2.626.926,4.093.154,4.248-13.129,2.78l-12.2-1.313-4.016,2.78a70.276,70.276,0,0,1-9.345,5.02l-5.251,2.24-.077,8.34c-.077,4.557-.155,8.727-.231,9.268a38.716,38.716,0,0,1-3.939,5.947l-3.861,5.019V712.32c0,9.191-.31,12.9-1,13.439-1.313,1.081-11.43,3.321-15.137,3.321-4.479,0-5.484-1.854-5.484-9.732v-6.332l-4.247-6.411c-4.325-6.641-4.866-8.34-3.476-11.894.541-1.622.386-2.7-.927-5.251-2.163-4.4-5.174-8.264-6.333-8.264a32.143,32.143,0,0,1-4.865-1.158c-4.48-1.313-4.4-1.236-7.646-12.743-1.853-6.8-2.317-7.646-5.87-10.813-2.317-2.085-5.946-6.951-9.036-11.97-4.557-7.414-5.483-8.5-8.187-9.423a13.47,13.47,0,0,1-4.016-2.008c-.54-.54-1.158-5.1-1.467-11.353-.31-5.792-1-11.816-1.623-13.515-3.552-10.04-4.865-14.751-5.792-20.08l-.848-5.512c-1.081-.1-2-2.368-2.906-3.181a5.573,5.573,0,0,1-2.109-3.43c-.222-.991-.458-2.415-1.491-2.94a1.157,1.157,0,0,0-1.258.129c-.292.179-.548.357-.842.21-1.532-.769-3.33-.4-4.631-1.51-1.769-1.5-2.941-3.17-5.471-3.311-4.346-.243-10.9-2.04-8.965-8.211,1.188,2.157,7.634-2.76,5.589-5.886a11.8,11.8,0,0,1-1.666-5c-.351-1.844-1.855-2.509-2.828-3.926-1.474-2.155,5.237-.387,6.1.044,1.7.853,6.48,4.765,8.447,3.758-1.037-1.1-.075-2.288.778-3.086l1.345-.5c1.083,3.784,2.947,11.04,4.167,10.247-.05.217-.4,1.524-2.4,1.215l2.48.783c-1.263.239-.061,4.319.149,5.334a1.859,1.859,0,0,0-.122.828c-.829,2.584-3.178.861-.723,5.971a19.389,19.389,0,0,0,.953-3.444c.069.441.155.929.262,1.465a9.785,9.785,0,0,0,.843,2.446,2.928,2.928,0,0,0,1.3,1.369,2.1,2.1,0,0,0,1.826-.128c-.265,1.961.621,2.276,2.178,2.871a5.2,5.2,0,0,1,2.906,4.271c2.036-1.009,3.759-.386,5.667,1.938l2.085,2.471,3.09-2.471c2.935-2.394,3.4-2.471,7.414-2.008l4.324.464v-3.862c0-5.329.927-5.946,7.183-4.865s6.1,1.082,5.1-.772c-1.158-2.163-.386-4.093,2.781-6.873,4.479-3.862,10.348-3.166,15.987,2.008,1.622,1.467,3.321,2.626,3.707,2.471a40.7,40.7,0,0,0,4.324-5.174c3.244-4.325,4.325-5.175,8.032-6.411,2.317-.772,4.247-1.39,4.325-1.39.386-.077,1.854-5.1,1.854-6.411,0-.85-1.545-4.016-3.476-7.028-3.166-5.1-3.476-6.1-4.171-13.052a67.6,67.6,0,0,0-1.236-8.264,17.778,17.778,0,0,0-4.479-2.549c-3.4-1.544-4.479-2.625-6.951-6.719a27.312,27.312,0,0,1-2.857-5.715,49.956,49.956,0,0,1,1.622-6.025l1.7-5.251-1.777-5.638c-.927-3.09-1.622-6.333-1.467-7.183.154-.772,1.7-2.239,3.4-3.089a8.162,8.162,0,0,0,4.4-5.02c2.162-5.715,1.93-6.1-2.78-6.1-4.866,0-5.716-.772-6.025-5.406-.231-3.244-.464-3.63-3.552-5.02-3.63-1.7-4.4-2.934-3.167-5.174,2.626-5.02,10.968-16.836,11.817-16.836,1.389,0,2.549,1.467,3.166,4.093.617,2.471,2.7,3.784,5.484,3.476,2.008-.232,2.008-.387,2.162-6.411.077-4.711.7-8.186,2.626-14.288,2.471-7.569,2.935-8.419,7.568-13.207,2.7-2.78,4.944-5.792,4.944-6.642,0-.772-1.931-6.178-4.325-11.893-5.56-13.361-5.329-12.434-3.244-14.828A120.751,120.751,0,0,0-2083.1,363.7c5.406-9.422,7.491-11.507,11.353-11.507,2.24,0,2.935-.54,5.792-4.711,3.166-4.4,3.552-4.712,9.113-6.411,3.244-1,7.8-2.317,10.272-2.858,4.4-.926,4.479-.926,11.044,2.008,3.63,1.545,6.719,2.7,6.951,2.549.154-.231-.386-2.549-1.236-5.174-1.468-4.248-1.544-4.943-.541-6.487.85-1.313.927-2.085.309-3.09-1.7-2.625.31-3.089,12.743-2.935a103.7,103.7,0,0,0,23.478-1.931c6.333-1.081,11.894-2.317,12.28-2.7s1.313-4.4,2.085-8.96,1.7-8.573,2.085-8.959a16.388,16.388,0,0,1,4.479-1.622c3.707-.927,3.784-1.081,7.646-8.109,3.707-6.951,4.016-7.337,9.808-10.813,6.332-3.861,9.808-7.878,15.214-17.763l2.78-5.019,6.487-1.468a61.322,61.322,0,0,0,6.873-1.7,62.478,62.478,0,0,0,1.777-7.491c.772-3.939,1.622-7.8,1.854-8.573.54-1.622,3.552-3.244,10.348-5.56,4.943-1.622,5.406-1.7,15.91-.695,5.946.54,11.507,1,12.434,1,2.935.077,4.171,2.085,4.171,6.874,0,4.633-.926,6.332-3.321,6.332-2.008,0-1.467,1.544,3.784,11.816,4.093,8.033,4.248,8.65,5.252,18.149.618,5.406,1.776,11.816,2.7,14.365a29.038,29.038,0,0,1,1.544,7.337c0,5.251-2.857,21.007-3.938,22.089-1.159,1.158-12.2,4.247-15.292,4.247-4.016,0-13.438-4.4-16.142-7.492a60.332,60.332,0,0,1-13.747-29.193c-1.236-7.182-1.931-8.263-3.631-5.638-1.158,1.7-1.158,2.626-.154,9.886.695,4.479,1.158,8.727,1.158,9.422.077.772-1.93,2.78-4.479,4.634a66.613,66.613,0,0,0-9.422,9.345l-4.865,6.1,1.776,8.572c2.471,12.048,3.321,13.284,6.951,9.5,1.468-1.622,1.545-2.162.85-3.552-1-1.777-.464-9.577.773-12.9.772-2.085,8.726-4.943,10.039-3.63.464.464,1.158,4.248,1.622,8.419.772,7.028,1.081,7.878,3.63,10.889,3.476,4.248,4.557,4.634,5.639,2.008,4.247-10.194,3.938-9.808,8.881-11.121,3.244-.85,6.873-1.081,12.666-.85,11.585.387,10.967.155,13.438,6.333,2.395,6.256,3.09,6.487,7.8,3.244l3.09-2.163-.309-5.56-.232-5.484,4.865-2.317c6.642-3.012,9.963-7.105,10.658-13.052.618-5.792,2.163-6.025,7.955-1.313,4.171,3.475,4.865,4.711,7.414,12.511.85,2.7-.155,5.329-3.552,9.113-2.085,2.394-2.318,2.394-6.642.31-3.09-1.468-3.707-1.545-5.947-.618l-2.471,1,.541,4.633c.695,6.025,1.236,7.028,4.788,8.033,2.858.926,2.935.926,7.414-3.321l4.479-4.325,24.483.31c25.718.309,28.807.695,28.807,3.63,0,1.158-1.313,2.239-4.48,3.861a56.455,56.455,0,0,0-5.946,3.4c-1.544,1.158-1.544,1.236.155,2.935,1.622,1.622,1.931,1.7,5.019.772,6.1-1.853,8.186-1.853,12.743-.155,3.63,1.313,5.87,1.545,11.817,1.391l7.337-.155v3.784c0,4.865,1.39,5.947,5.1,3.785,2.549-1.468,2.626-1.622,2.7-6.873.077-7.26-.077-6.874,3.321-8.419l3.011-1.39,8.573,4.943,8.573,4.865,10.581,16.064c5.792,8.8,10.812,16.063,11.121,16.063a5.933,5.933,0,0,0,1.776-2.008c1.236-1.853,1.236-2.085,0-3.938-.926-1.544-1.158-2.935-.772-6.333l.541-4.4-3.166-2.549c-3.707-2.935-3.939-4.711-.85-7.182,2.239-1.854,6.256-8.882,6.256-11.044a5.412,5.412,0,0,0-.927-2.626c-.618-1-.541-2.394.464-5.715,1.236-4.325,1.39-4.479,7.8-8.419,6.025-3.63,7.26-4.865,13.207-12.82,3.553-4.789,6.951-8.96,7.492-9.113.541-.232,4.634.927,9.036,2.549,5.638,2.085,8.109,3.4,8.341,4.325a32.625,32.625,0,0,1-.618,6.565c-.772,4.711-1.39,5.87-6.024,11.662l-5.1,6.41,1.39,5.638,1.468,5.638-2.085,5.483c-1.082,3.09-2.086,6.488-2.086,7.646s-1.158,5.483-2.7,9.731a58.688,58.688,0,0,0-2.625,9.036,26.611,26.611,0,0,0,2.008,6.333l2.008,4.943-3.012,6.024a48.985,48.985,0,0,1-6.8,9.963c-2.163,2.239-5.329,5.715-7.028,7.645-2.935,3.4-3.4,3.63-6.951,3.63a38.063,38.063,0,0,1-8.033-1.158,16.891,16.891,0,0,0-4.479-.85,26.2,26.2,0,0,0,3.552,3.707c5.252,4.865,9.036,5.484,16.064,2.549a18.772,18.772,0,0,0,7.8-5.561,31.887,31.887,0,0,1,6.333-5.792c5.406-3.63,5.484-3.784,5.484-13.824V393.2l4.247-1.622c5.02-1.853,7.183-1.931,10.735-.464,2.7,1.159,3.785,3.476,5.484,11.817.309,1.853.926,2.548,2.085,2.548,1.39,0,1.544-.309,1.081-3.63a39.986,39.986,0,0,1-.464-4.943c0-1.081-4.557-5.1-9.191-7.954a25.844,25.844,0,0,0-6.41-1.236c-2.935-.386-5.792-1.082-6.41-1.545-.927-.772-1.158-2.7-1.158-7.568,0-6.487,0-6.719,3.475-12.28l3.553-5.715-1.931-8.11c-1.391-5.792-1.777-8.726-1.236-10.039.772-1.931,6.333-7.8,11.121-11.507,2.626-2.085,3.012-2.78,3.321-6.565.309-2.626.927-4.634,1.7-5.175,1.776-1.39,5.947-1.236,6.565.232,1.158,3.166.309,9.5-2.317,16.914-4.325,11.893-4.4,11.044,2.008,14.519,3.011,1.622,5.715,2.781,5.946,2.471.31-.231-1.467-2.471-3.784-4.865a33.505,33.505,0,0,1-4.788-5.792c-.695-2.085,2.24-7.414,4.479-7.954a4.921,4.921,0,0,1,2.858.077c.7.463.772.232.309-.849-1.93-4.48-1.544-5.252,3.321-7.569,2.549-1.236,5.175-2.008,5.87-1.777a7.015,7.015,0,0,1,2.394,3.09,5.119,5.119,0,0,0,2.549,3.011c.772.232,3.244,2.626,5.484,5.33,7.723,9.345,7.877,9.5,8.65,8.186.926-1.7-.077-4.017-4.248-9.577-1.931-2.549-3.63-5.329-3.785-6.179-.386-3.09,1.158-15.678,2.085-16.914.772-1.081,3.862-1.622,16.3-2.78,8.419-.772,15.524-1.622,15.755-1.854a11.086,11.086,0,0,0-.927-3.938c-1.313-3.476-1.313-3.63.232-6.256,2.471-4.247,9.576-13.438,12.433-16.141,1.468-1.313,6.411-4.094,11.044-6.178,6.178-2.7,8.8-4.325,9.654-5.87.85-1.391,3.166-2.935,7.568-4.943,6.874-3.012,8.032-2.935,9.037.927.617,2.394,1.7,2.394,7.027-.232,4.248-2.085,4.248-2.085,3.785-4.865-.54-3.244.309-4.171,4.557-4.943l3.012-.541-.541-4.711-.464-4.788,4.634-7.105c6.333-9.808,9.654-11.2,17.995-7.723,3.321,1.39,3.707,3.166,1.391,6.1-2.163,2.7-2.008,2.935,1.39,2.935,3.321,0,4.789,1.081,4.789,3.63,0,2.239.309,2.239,3.861-.541,2.781-2.239,3.167-2.317,11.044-2.317h8.11l5.638,4.711c3.166,2.549,6.178,5.792,6.719,7.105.695,1.544,1.081,5.484,1.158,10.967,0,9.5-.077,9.886-6.719,19.694-2.163,3.167-5.87,9.268-8.186,13.515-2.394,4.248-5.329,9.346-6.487,11.353l-2.163,3.707h1.777c1.313,0,4.4-2.394,9.963-7.646,8.572-8.186,15.446-13.206,17.762-13.206a4.053,4.053,0,0,1,2.781,1.93c1.544,2.394,2.394,2.394,3.475,0a7.393,7.393,0,0,1,4.093-3.09c6.178-2.162,18.072-5.019,19.308-4.557.772.31,1.236,1.391,1.236,2.935,0,2.626,1.158,4.325,3.012,4.325,1.467,0,17.763-6.642,18.767-7.646.464-.463.077-2.162-.85-4.324-2.085-4.634-2.085-6.024,0-9.731l1.7-3.012h6.719c6.487,0,6.719-.077,9.886-2.857,2.548-2.163,3.63-2.626,4.788-2.085,1.236.541,8.959,7.182,20.621,17.686,2.625,2.317,2.935,5.02.54,5.02-1.7,0-1.313,1.236.927,3.011,2.7,2.163,18.844,7.337,18.767,6.025,0-.077-1.313-4.325-3.012-9.422-2.239-6.8-2.78-9.5-2.162-10.272.617-.7,2.935-.927,8.5-.773l7.723.232,1.313-3.862c1.467-4.324,3.476-5.792,7.878-5.792,2.471,0,3.552-.695,7.182-4.324a33.017,33.017,0,0,0,4.248-4.788c0-.31-2.085-2.009-4.634-3.862-2.549-1.777-4.633-3.862-4.633-4.634,0-.695-.31-3.785-.7-6.718-.309-3.012-.309-6.025.077-6.719.386-.772,3.4-2.857,6.642-4.712,18.381-10.426,24.714-14.441,28.266-17.609,5.406-4.865,6.565-5.329,12.357-5.329,5.946,0,7.492,1.082,6.1,4.634-.464,1.313-.617,2.394-.309,2.549.464.309,18.226-3.476,20.466-4.325.617-.231,4.093-6.332,7.723-13.438l6.565-13.052,6.951-3.63,6.951-3.707,5.252.85c4.48.695,5.716,1.236,8.187,3.63l2.858,2.857,3.321-2.318c2.78-2.008,3.552-3.166,5.251-8.109,2.317-6.8,1.853-5.946,9.267-16.141,4.712-6.411,6.025-8.882,6.488-11.74.309-2.008.926-3.938,1.467-4.325.464-.464,4.557-1,9.113-1.313,4.479-.309,8.5-.772,8.959-1.082,1.158-.772,1.7-5.946.772-6.951-.464-.463-3.012-.85-5.638-.85-4.4,0-5.1-.231-8.186-2.78a18.718,18.718,0,0,1-4.016-4.247c-.541-1.082,1.236-4.711,7.568-15.91,9.268-16.45,10.813-18.149,28.575-32.127,14.134-11.045,39.7-28.344,42.091-28.344a32.3,32.3,0,0,1,6.873,1.622c3.476,1.236,5.252,1.467,6.178.926,2.394-1.467,1.7-2.317-2.239-2.857-2.163-.231-4.479-.85-5.02-1.313-1.777-1.467-1.313-4.865.85-6.873a12.046,12.046,0,0,0,2.7-5.02c1.622-6.332,2.24-7.1,10.04-12.28,4.247-2.858,8.418-5.019,9.345-5.019s3.552,1.312,5.792,3.011c4.633,3.476,4.865,4.171,3.011,11.276a15.16,15.16,0,0,0-.849,4.788,87.362,87.362,0,0,0,9.422,1.854c11.971,2.008,12.356,2.162,13.438,6.179.85,2.934.772,3.63-.927,6.718-1.467,2.935-2.317,3.63-5.019,4.248-2.626.695-3.784,1.7-6.951,5.87-3.63,4.865-3.862,5.019-7.8,5.405-5.792.541-7.723,2.781-8.8,9.654-.464,2.935-1.158,5.87-1.622,6.41-.618.772-2.318.85-6.8.464-6.487-.541-7.337-.154-6.178,3.012.618,1.622,1.391,2.008,4.789,2.394,13.052,1.622,12.588,1.236,15.368,12.666l1.777,7.106-2.549,3.166c-2.008,2.549-2.317,3.321-1.467,3.862,1.544,1,1.622.927,6.719-2.471,5.329-3.553,5.715-3.63,12.126-2.317,4.247.927,5.019.85,10.272-.926,3.166-1.082,6.332-1.777,7.1-1.545,1.622.387,9.268,7.028,9.268,8.032,0,.386-2.626,3.475-5.792,6.873-3.244,3.4-5.792,6.873-5.792,7.723,0,1.545,5.484,23.247,9.191,36.685,6.487,22.937,7.877,26.953,10.966,31.279,1.777,2.625,2.858,4.865,2.549,5.56-.386,1-11.662,5.252-14.056,5.252-1.7,0-2.471,2.317-3.321,9.267l-.85,7.337,2.394,5.175a30.621,30.621,0,0,1,2.394,6.41c0,2.008-2.317,2.239-5.483.386a10.969,10.969,0,0,0-3.784-1.467c-.386.154-.077,1.776.772,3.63,2.085,4.633,1.931,6.179-1.236,10.117-1.467,1.854-2.626,3.785-2.626,4.248,0,.54,1.854,3.861,4.171,7.414,2.318,3.63,5.947,9.345,8.11,12.82s4.4,6.719,5.02,7.183c1.544,1.313,2.857.309,2.317-1.777-.541-2.162.617-3.166,4.943-4.325,4.711-1.236,6.332-.618,8.881,3.475,3.166,4.943,7.955,7.338,15.137,7.338,4.711,0,5.406.154,5.87,1.544.618,1.93-.309,7.723-1.391,9.113-.926,1.081,1.391,9.653,2.858,10.812a30.788,30.788,0,0,0,6.487,2.085c6.41,1.544,7.413,2.549,8.186,8.573.54,3.707.386,4.171-1.854,6.719-2.163,2.471-2.394,3.166-2.163,6.873l.232,4.016,5.406,3.707a46.236,46.236,0,0,1,6.332,4.943c.618.927,1,4.248,1,9.654v8.34l3.861,4.4a68.28,68.28,0,0,1,6.1,8.341c2.394,4.324,6.565,20.62,5.792,22.937-1,3.321-4.633,1.853-39.619-15.678l-34.291-17.222-8.186-8.959-8.263-8.882-1.468-7.182c-1.391-7.105-1.468-7.26-5.1-10.04-4.247-3.244-4.479-4.016-2.471-11.43l1.312-4.943-3.166-9.422c-1.777-5.174-5.406-15.523-8.033-22.937-5.946-16.991-6.024-17.068-6.8-28.035-.772-10.58-.464-10.194-10.5-17.222-6.952-4.865-7.569-5.87-5.406-9.577,1.236-2.317,1.467-4.17.309-3.475s-4.634,7.8-4.557,9.422c.077.772,2.549,3.4,5.484,5.87l5.405,4.557-.463,3.552c-.386,2.471.076,6.719,1.467,13.515,2.163,10.966,2.394,13.284,1.158,14.056-.463.309-3.166.309-5.946,0-4.712-.541-5.329-.85-9.036-4.325-4.711-4.4-3.939-4.788-10.349,4.865-2.163,3.321-3.938,6.874-3.938,7.955,0,3.09,10.04,35.217,11.816,38,1.931,2.934,2.24,3.011,5.1.926,2.7-2.008,4.48-1.313,6.642,2.7,1.622,3.089,2.008,2.317-4.479,9.962-2.317,2.7-3.4,5.02-4.865,10.659-4.324,16.063-3.63,15.214-11.2,13.824-4.788-.927-5.483-1.7-4.479-4.865a6.752,6.752,0,0,0,.309-2.7c-.231-.231-3.552,1.468-7.414,3.785-4.865,2.857-6.873,4.479-6.641,5.329.231.618,1,2.7,1.776,4.634,1.7,4.479,1.159,5.869-2.7,7.028-2.935.85-3.166,1.081-3.321,4.093-.231,3.089-.309,3.166-4.711,4.711-4.247,1.391-4.4,1.622-4.556,4.248v3.244c.078.231-1.776,1-4.017,1.7-3.861,1.081-4.556,1.777-11.97,10.658-4.325,5.251-7.8,10.194-7.8,11.044a8.754,8.754,0,0,0,1.158,3.476c1.544,2.78,1.391,5.483-.772,11.2l-1.931,5.02,2.858,4.634L-1117.4,438l-2.549,9.808-2.471,9.808,1.236,10.967,1.313,11.044-2.7,12.512c-3.938,17.917-3.938,18.381-2.626,18.381.618,0,3.553-1.777,6.642-3.862,3.012-2.163,5.87-3.861,6.411-3.861a5.664,5.664,0,0,1,2.625,1.544c1.622,1.544,1.776,1.544,6.642.231,2.78-.695,5.484-1.081,6.178-.85.618.232,1.544,1.931,2.085,3.707,1,3.09,1.081,3.167,2.471,1.854,2.008-1.777,1.93-3.167-.386-6.874-2.78-4.479-2.471-5.869,1.777-9.885,4.4-4.093,7.954-5.1,13.052-3.784a54.2,54.2,0,0,0,11.044.927h7.723V487.27a10.773,10.773,0,0,1,1.158-4.557c1.545-3.089.773-4.4-3.552-5.869-6.487-2.163-7.183-6.642-1.7-10.89,1.854-1.39,3.785-2.317,4.325-2.162a27.581,27.581,0,0,1,4.4,4.711,117.438,117.438,0,0,0,11.661,11.585c4.789,4.171,8.882,8.5,9.654,10.117,1.544,3.166,1.236,2.935,24.637,15.833,23.787,13.129,25.95,14.519,25.718,16.3-.231,1.081-1.853,2.163-6.024,3.938-3.244,1.313-5.87,2.935-6.024,3.553-.077.617,1.853,5.792,4.4,11.584,3.4,7.724,5.1,10.813,6.8,11.971,1.236.85,7.337,3.244,13.515,5.252,10.967,3.552,11.431,3.861,14.442,7.413,3.09,3.707,3.862,5.716,2.394,6.642-.386.232-3.706,0-7.414-.464-3.629-.463-6.8-.695-7.1-.386-.232.232.695,2.781,2.008,5.715,2.549,5.484,3.012,8.187,1.622,9.036-.85.541-10.58-4.17-14.287-7.027-3.244-2.394-11.816-14.056-15.369-21.007-2.471-4.712-3.4-5.792-6.178-7.028-2.549-1.158-5.56-4.325-14.9-15.6-16.76-20.466-15.988-19.771-22.861-22.706l-6.1-2.626.464,3.553c.85,6.179,6.642,16.836,13.515,24.945a123.959,123.959,0,0,1,11.661,16.6l5.252,9.267.926,15.06c.618,11.354,1.313,16.914,2.781,22.784,1.931,7.492,2.008,8.727,2.471,39.774l.386,32.128-3.244,7.259c-1.777,4.016-4.325,9.577-5.638,12.357l-2.471,5.02-8.881,2.7c-4.943,1.544-9.422,2.935-9.963,3.09-.695.309-1.236,2.471-1.622,6.179-.772,6.951-3.938,14.674-6.1,14.674a16.188,16.188,0,0,1-3.63-.772c-1.236-.386-3.707-1.082-5.484-1.544-4.4-1.082-4.633-2.549-1.158-6.025a25.535,25.535,0,0,0,4.634-6.487l1.776-3.63-4.4-6.951a39.4,39.4,0,0,0-9.267-10.966c-2.7-2.24-5.1-4.48-5.251-5.02-.232-.541.617-4.171,1.93-8.032,2.626-7.878,2.935-8.109,10.272-9.036,5.87-.617,6.256-1,5.251-5.02a65.288,65.288,0,0,1-1.236-10.271c-.386-6.178-.85-8.032-4.325-16.219s-3.862-9.731-3.476-12.9c.464-3.166.155-4.016-2.471-8.263-1.622-2.626-3.166-4.711-3.475-4.711-.541,0-8.727,12.666-10.812,16.836a51.885,51.885,0,0,1-7.106,8.8l-5.56,6.024h-8.573l-6.024-6.642c-4.789-5.252-6.333-6.487-7.569-6.1-.85.309-4.788.077-8.65-.464-7.028-.927-7.259-.927-12.125,1a87.384,87.384,0,0,1-10.194,3.244c-4.866,1.236-5.406,1.236-7.183.077-1.7-1.159-12.666-10.967-33.364-29.966-4.093-3.784-8.264-7.183-9.267-7.569-2.7-1.081-6.487-.85-8.5.541-1.467,1-3.011,1.158-9.421.695l-7.646-.541-5.252,3.244c-11.816,7.414-18.69,14.751-18.69,19.771,0,.7,2.24,3.63,5.02,6.565,2.7,2.935,5.02,6.025,5.02,6.873a20.057,20.057,0,0,1-1.93,5.406c-1.854,3.476-1.931,4.634-1.931,14.52v10.813l2.626,3.166c1.468,1.777,2.471,3.63,2.317,4.171-.231.54-2.239,1.931-4.479,3.011-3.63,1.777-4.325,2.472-5.869,6.256-1.931,4.711-2.858,5.329-10.5,6.642a15.417,15.417,0,0,1-8.8-.386l-4.171-1.236-3.167,3.476c-3.552,3.861-3.166,3.784-11.43,1.312a20.524,20.524,0,0,0-6.178-.617c-3.552.231-3.861.617-10.117,11.353-2.008,3.4-4.248,5.484-12.434,11.507l-10.039,7.337-13.9,1.777c-19.463,2.471-19.926,2.394-24.019-1-7.105-5.792-28.807-7.8-35.217-3.244-1.468,1-4.093,2.935-5.947,4.325-1.776,1.391-3.938,2.549-4.711,2.549s-5.329-.927-10.194-2.008c-6.025-1.313-9.191-2.395-10.04-3.4a29.1,29.1,0,0,1-2.935-6.951c-.85-2.935-1.853-5.561-2.239-5.715-1-.7-28.885-6.642-30.739-6.642-1.235,0-3.089,1.93-6.95,7.105-2.858,3.938-5.175,7.646-5.1,8.34a96.065,96.065,0,0,0,3.166,9.113c1.7,4.325,2.935,8.5,2.7,9.113s-2.858,2.317-5.716,3.784l-5.329,2.7h-16.218c-15.987,0-16.219-.077-17.3-1.777a15.62,15.62,0,0,1-1.622-4.171,6.652,6.652,0,0,0-1.544-3.32c-.541-.386-5.251-1.545-10.5-2.395l-9.576-1.622-13.748,6.8c-12.974,6.487-13.747,6.951-14.21,9.345a6.329,6.329,0,0,1-1.158,3.012,83.931,83.931,0,0,1-8.186,2.239c-7.105,1.7-9.963,3.321-11.121,6.411-.326.816-1.687,1.21-4.136,1.21Q-1584.537,754.849-1586.659,754.643ZM-1058.4,493.835a3.674,3.674,0,0,0,1.931,4.943c2.008.927,2.935,1.082,2.935.541a19.661,19.661,0,0,0-2.085-3.552c-1.137-1.706-1.721-2.443-2.168-2.443C-1058.009,493.323-1058.2,493.5-1058.4,493.835Zm-1116.214,70.357a4.775,4.775,0,0,0,.15-.615.847.847,0,0,0-.029-.214c.195-.275.514,1.021.109,3.356A16.094,16.094,0,0,1-2174.615,564.191Zm23.863-213c-3.785-4.171-17.531-24.25-17.531-25.641s.541-1.622,6.1-2.162c7.8-.773,9.268-.386,11.354,2.934,2.085,3.167,2.317,3.167,5.174,1,1.236-.85,2.78-1.467,3.321-1.236,1.081.464,3.321,6.873,6.487,18.149.927,3.4,1.082,5.174.541,5.715-.927.927-9.036,2.935-11.894,2.935-.053,0-.108.005-.163.005A4.974,4.974,0,0,1-2150.752,351.19Zm390.711-30.661c-4.788-3.63-7.105-6.024-7.492-7.491-.309-1.158-1.39-6.178-2.394-11.2-1.7-8.572-1.777-9.267-.617-13.129,1.544-5.251,1.93-5.715,6.332-7.183,2.781-.926,5.251-2.858,10.581-8.109,5.715-5.792,7.259-6.951,9.267-6.951,1.931,0,2.858-.695,4.788-3.321,1.468-2.008,6.642-6.487,12.9-11.044,5.792-4.248,11.894-8.65,13.515-9.886,3.707-2.7,13.9-4.634,33.673-6.256,8.341-.695,14.906-1.622,18.149-2.625,6.024-1.931,8.34-2.008,10.658-.386,1.622,1.158,1.776,1.7,1.467,5.483-.309,3.631-.695,4.557-3.63,7.569-1.853,1.853-4.248,3.552-5.406,3.785-2.548.617-11.507,1.776-21.238,2.78-7.955.85-12.048,2.549-21.007,8.573a80.331,80.331,0,0,1-8.881,4.788,67.893,67.893,0,0,0-12.2,7.955c-3.63,2.935-8.34,6.642-10.426,8.186-3.785,2.7-10.658,10.04-14.134,14.983-1.467,2.085-1.7,3.475-1.7,9.576a89.366,89.366,0,0,0,.85,12.126c1,5.792.309,7.182-3.63,7.182C-1752.55,325.935-1754.713,324.7-1760.042,320.529Zm449.483-90.9c-.927-1.7-1.854-12.28-1.236-13.825.231-.617.772-1.081,1.081-1.081a15.186,15.186,0,0,0,3.63-2.008c2.471-1.777,3.553-2.008,7.569-1.7,5.174.309,9.653,2.7,9.653,5.251,0,1.391-15.909,13.747-18.689,14.442a1.2,1.2,0,0,1-.379.06A1.9,1.9,0,0,1-1310.558,229.629Zm-208.678-1c-.85-.54-.927-2.008-.232-8.264a51.9,51.9,0,0,0,.541-7.877,4.044,4.044,0,0,0-1.777.617c-1.236.695-3.475.464-9.808-1-4.479-1.081-8.573-2.317-9.19-2.78-1.931-1.544-4.48-11.2-3.939-14.6.464-2.549.309-3.321-.695-3.63a1.961,1.961,0,0,1-1.158-1.468c0-.617-1.236-2.471-2.7-4.247a18.878,18.878,0,0,1-2.7-3.631c0-1.39,3.321-13.283,4.171-14.9,1.7-3.09,7.028-7.955,8.573-7.646.695.155,3.166,3.321,5.406,7.105,3.63,5.947,4.17,7.414,4.4,11.507.231,4.943.617,5.484,4.788,6.41a11.935,11.935,0,0,1,4.789,3.012c2.317,2.317,2.625,3.09,2.625,6.951,0,2.471.309,4.325.772,4.325a13.962,13.962,0,0,0,3.631-1.931c3.706-2.549,4.4-2.471,6.255.7,1.158,2.008,1.931,2.548,3.167,2.239a3.544,3.544,0,0,1,2.78.541c1.467,1.236,7.337,13.593,7.337,15.523,0,1.777-.386,2.008-11.971,7.337-10.457,4.822-13.048,6.017-14.183,6.017A1.534,1.534,0,0,1-1519.236,228.624Zm179.638-16.218c-2.935-.772-5.638-1.777-6.1-2.24s-1.391-3.861-2.163-7.568c-.772-3.785-1.622-7.878-1.853-9.191-.386-1.777-.232-2.78.85-3.785,1.158-1.158,2.239-1.313,6.719-.927l5.329.464-.54-2.471c-1.236-5.483-1.236-5.56,3.861-6.024a39.82,39.82,0,0,0,9.422-2.549,31.963,31.963,0,0,1,5.87-2.008c3.707,0,7.105,10.658,5.329,16.682-1.081,3.552-10.735,16.373-14.365,19.23a7.5,7.5,0,0,1-4.892,1.762A31.377,31.377,0,0,1-1339.6,212.406Zm30.2-29.579c-1.777-1.468-5.329-7.492-5.02-8.727.077-.618,4.865-3.321,10.58-6.1,11.044-5.329,15.523-6.333,16.914-3.707.85,1.622-1.081,13.284-2.471,14.674-.541.541-4.248,1.7-8.264,2.549s-8.032,1.7-8.881,1.93a3.661,3.661,0,0,1-.6.047A3.9,3.9,0,0,1-1309.4,182.827Zm-347.539-21.7c-1-.773-2.163-.927-4.248-.386a33.987,33.987,0,0,1-5.019.617l-2.163.077.077-5.251a70.891,70.891,0,0,0-.85-11.121c-.85-4.865-.85-6.178,0-7.183a3.33,3.33,0,0,1,1.853-1.158,5.265,5.265,0,0,0,2.163-1.313c1.39-1.158,10.58-4.093,13.129-4.093,1.313,0,5.329,5.406,5.329,7.26,0,.695-1,1.776-2.163,2.548a13.014,13.014,0,0,0-2.625,2.008c-.927,1.391.386,3.631,3.011,5.252l2.7,1.7,5.792-1.468c4.17-1,6.1-1.158,7.028-.617,1.7,1.081,4.324,7.491,3.706,9.113-.617,1.7-8.8,5.252-10.889,4.789a11.129,11.129,0,0,1-3.707-2.317l-2.008-1.853-2.163,2.239a7.48,7.48,0,0,1-5.378,2.264A5.947,5.947,0,0,1-1656.939,161.125Zm-40.469-14.674h0c-4.711-3.244-5.174-5.329-1.7-7.182l2.625-1.313-2.317-.464c-1.313-.231-2.471-1-2.549-1.7-.464-2.085,2.78-7.568,5.1-8.573a10.258,10.258,0,0,0,2.935-2.085c.695-.927,1.931-.617,8.418,1.931,7.955,3.166,10.813,5.1,10.04,7.027a33.42,33.42,0,0,0-.464,5.561c0,2.394-.232,4.788-.618,5.406-.54.85-13.747,4.016-16.682,4.016C-1693.16,149.077-1695.322,147.919-1697.407,146.451ZM-1154.475,69.3c-5.1-5.483-5.639-6.642-5.639-11.816,0-5.792.464-7.259,2.394-7.259.772,0,3.4-1.39,5.87-3.09,5.174-3.63,6.873-3.861,7.955-1.158,1.853,4.865-.155,22.01-2.857,24.714a3.879,3.879,0,0,1-2.8,1.145A6.953,6.953,0,0,1-1154.475,69.3Z" transform="translate(2197.513 -13.5)"/></svg>