<svg width="108" height="108" fill="none" xmlns="http://www.w3.org/2000/svg"><path d="M54 107.5c-14.291 0-27.725-5.564-37.83-15.67C6.064 81.725.5 68.291.5 54c0-14.291 5.564-27.725 15.67-37.83C26.275 6.064 39.709.5 54 .5c14.291 0 27.725 5.564 37.83 15.67C101.936 26.275 107.5 39.709 107.5 54c0 14.291-5.564 27.725-15.67 37.83C81.725 101.936 68.291 107.5 54 107.5zM54 6.25C27.67 6.25 6.25 27.67 6.25 54S27.67 101.75 54 101.75 101.75 80.33 101.75 54 80.33 6.25 54 6.25z" fill="#fff" stroke="#fff"/><path d="M37.716 68.496h38.47c.878 0 1.651-.577 1.902-1.418l7.83-26.289a1.985 1.985 0 00-1.903-2.551H33.498l-2.671-8.97a1.985 1.985 0 00-1.903-1.417h-7.939a1.985 1.985 0 100 3.97h6.46l2.658 8.925c.008.03.016.06.026.088l7.062 23.712c-4.031.271-7.229 3.635-7.229 7.733 0 4.276 3.479 7.754 7.754 7.754h1.97c.861 2.952 3.59 5.117 6.818 5.117 3.227 0 5.956-2.164 6.817-5.117h10.532c.861 2.952 3.59 5.117 6.817 5.117 3.227 0 5.956-2.164 6.818-5.117h2.557a1.985 1.985 0 000-3.97h-2.557c-.862-2.953-3.59-5.117-6.818-5.117-3.227 0-5.956 2.164-6.817 5.117H53.32c-.861-2.953-3.59-5.117-6.817-5.117-3.227 0-5.957 2.164-6.818 5.117h-1.97a3.788 3.788 0 01-3.784-3.784 3.788 3.788 0 013.784-3.783zm29.12-26.288h14.517l-2.732 9.174H66.835v-9.174zm0 13.144h10.602l-2.732 9.174h-7.87v-9.174zm-14.69-13.144h10.718v9.174H52.147v-9.174zm0 13.144h10.718v9.174H52.147v-9.174zm-3.97 9.174h-6.85l-2.732-9.174h9.583v9.174zM34.68 42.208h13.497v9.174H37.413l-2.733-9.174zm35.99 32.708a3.135 3.135 0 013.132 3.132 3.135 3.135 0 01-3.132 3.132 3.135 3.135 0 01-3.131-3.132 3.135 3.135 0 013.131-3.132zm-24.166 0a3.135 3.135 0 013.132 3.132 3.135 3.135 0 01-3.132 3.132 3.135 3.135 0 01-3.132-3.132 3.135 3.135 0 013.132-3.132z" fill="#fff"/></svg>