<svg width="26" height="26" fill="none" xmlns="http://www.w3.org/2000/svg"><circle cx="13" cy="13" r="13" fill="#fff"/><circle cx="13" cy="13" r="6" fill="#3C9BC6"/>&gt;<g clip-path="url(#clip0)"><circle cx="13" cy="13" r="13" fill="#fff"/><circle cx="13" cy="13" r="6" fill="#3C9BC6"/><path d="M3.694 20.175h10.04v22.909c0 .506.41.916.916.916h14.662c.506 0 .916-.41.916-.916v-22.91h10.08a.916.916 0 00.65-1.563L22.675.27a.917.917 0 00-1.298-.001L3.051 18.609a.916.916 0 00.643 1.566z" fill="#CD2288"/><path d="M22.03.015c.243 0 .476.097.648.27l18.28 18.334a.916.916 0 01-.65 1.556h-10.08v22.909c0 .506-.41.916-.916.916h-14.66a.916.916 0 01-.917-.916v-22.91H3.693a.916.916 0 01-.649-1.565L21.371.268a.917.917 0 01.658-.253zm16.072 18.327L22.027 2.214 5.9 18.342h8.752c.506 0 .916.41.916.916v22.91h12.83v-22.91c0-.506.41-.916.916-.916h8.79z" fill="#fff"/></g><defs><clipPath id="clip0"><path fill="#fff" transform="rotate(180 22 22)" d="M0 0h44v44H0z"/></clipPath></defs></svg><svg width="26" height="26" fill="none" xmlns="http://www.w3.org/2000/svg"><circle cx="13" cy="13" r="13" fill="#fff"/><circle cx="13" cy="13" r="6" fill="#3C9BC6"/></svg>