<svg width="1171" height="456" fill="none" xmlns="http://www.w3.org/2000/svg"><path d="M1155.96 18.046c-8 8.245-19.99 24.524-37.32 18.328l37.32-18.329-6.73 37.721c-15.11-8.832-1.16-27.28 6.62-37.576l.11-.145z" fill="#D630A9"/><path d="M1127.68 53.095l28.28-35.05m0 0c-8 8.245-19.99 24.525-37.32 18.33l37.32-18.33zm0 0c-7.76 10.268-21.91 28.848-6.73 37.721l6.73-37.72z" stroke="#CD2288" stroke-width="20"/><path d="M10 456c0-25.187 49.498-68.788 86.194-74.694 36.695-5.906 83.673-4.777 117.445 0 23.6 3.338 76.012 9.207 105.852-26.924 29.841-36.131 57.463-56.646 112.405-38.216 18.987 6.369 61.999 17.196 82.162 9.553 20.162-7.642 40.996-41.689 48.893-57.757 7.257-14.765 38.006-36.131 89.218-10.423 51.213 25.709 89.891-3.184 102.828-20.844 19.659-24.753 49.196-75.997 88.714-75.997s67.544 16.502 90.227 16.502c25.707 0 67.242-13.375 100.312-35.609 33.06-22.235 77.28-69.825 94.75-90.091" stroke="url(#paint0_linear)" stroke-width="20"/><path d="M10 456c0-25.187 49.498-68.788 86.194-74.694 36.695-5.906 83.673-4.777 117.445 0 23.6 3.338 76.012 9.207 105.852-26.924 29.841-36.131 57.463-56.646 112.405-38.216 18.987 6.369 61.999 17.196 82.162 9.553 20.162-7.642 40.996-41.689 48.893-57.757 7.257-14.765 38.006-36.131 89.218-10.423 51.213 25.709 89.891-3.184 102.828-20.844 19.659-24.753 49.196-75.997 88.714-75.997s67.544 16.502 90.227 16.502c25.707 0 67.242-13.375 100.312-35.609 33.06-22.235 77.28-69.825 94.75-90.091" stroke="#CD2288" stroke-width="20"/><defs><linearGradient id="paint0_linear" x1="10" y1="222" x2="1129" y2="207.5" gradientUnits="userSpaceOnUse"><stop stop-color="#CD2288"/><stop offset="1" stop-color="#D72FA9"/></linearGradient></defs></svg>