<svg width="83" height="83" fill="none" xmlns="http://www.w3.org/2000/svg"><path d="M10.615 21.23a5.25 5.25 0 005.245-5.243 5.25 5.25 0 00-5.245-5.245 5.25 5.25 0 00-5.244 5.245 5.25 5.25 0 005.244 5.244zm0-8.056a2.816 2.816 0 012.813 2.813 2.816 2.816 0 01-2.813 2.812 2.816 2.816 0 01-2.812-2.812 2.816 2.816 0 012.812-2.813z" fill="url(#paint0_linear)"/><path d="M10.615 34.659a5.25 5.25 0 005.245-5.244 5.25 5.25 0 00-5.245-5.245 5.25 5.25 0 00-5.244 5.245 5.25 5.25 0 005.244 5.244zm0-8.057a2.816 2.816 0 012.813 2.813 2.816 2.816 0 01-2.813 2.812 2.816 2.816 0 01-2.812-2.812 2.816 2.816 0 012.812-2.813z" fill="url(#paint1_linear)"/><path d="M79.19 5.371h-4.247V2.56A2.562 2.562 0 0072.385 0h-61.77a2.562 2.562 0 00-2.558 2.559V5.37H3.81A3.816 3.816 0 000 9.181v4.374a1.216 1.216 0 102.432 0V9.18c0-.76.618-1.378 1.378-1.378h13.61c.76 0 1.378.618 1.378 1.378v27.04a1.38 1.38 0 01-1.378 1.378H3.81a1.38 1.38 0 01-1.378-1.378V12.9A1.216 1.216 0 100 12.9v23.32a3.814 3.814 0 003.81 3.81h2.904v2.94h-1.47a2.561 2.561 0 00-2.558 2.558v2.686a2.562 2.562 0 002.558 2.559h.127v9.24L.128 70.497l-.011.026a1.18 1.18 0 00-.069.182l-.014.056a1.126 1.126 0 00-.032.25l-.002.03v4.028a2.562 2.562 0 002.559 2.559h.127v2.812A2.561 2.561 0 005.244 83H53.84a1.216 1.216 0 100-2.432h-8.444c.002-.042.006-.084.006-.127V77.63h32.482v2.812c0 .07-.057.127-.127.127H58.702a1.216 1.216 0 100 2.432h19.054a2.561 2.561 0 002.558-2.559V77.63h.127A2.562 2.562 0 0083 75.07v-4.028l-.001-.03-.004-.076-.006-.049a1.227 1.227 0 00-.058-.246c-.006-.016-.01-.03-.017-.046a1.281 1.281 0 00-.031-.07l-.011-.027-5.243-10.485v-9.24h.127a2.561 2.561 0 002.558-2.559v-2.686a2.561 2.561 0 00-2.558-2.558h-1.47v-2.94h2.904A3.814 3.814 0 0083 36.22V9.18c0-2.1-1.709-3.809-3.81-3.809zm-68.701 0V2.56c0-.07.056-.127.126-.127h61.77c.07 0 .126.057.126.127v2.81H10.49zm57.994 34.66v2.939H58.83v-2.94h9.654zm11.334 29.795H45.402v-1.47a3.906 3.906 0 00-3.902-3.901H20.015a3.906 3.906 0 00-3.901 3.901v1.47H3.183l4.155-8.311h68.324l4.155 8.31zM42.97 59.084h-2.94v-2.94h2.94v2.94zm1.216-5.372H27.98a1.38 1.38 0 01-1.378-1.378V30.666c0-.76.618-1.378 1.378-1.378h27.04c.76 0 1.378.618 1.378 1.378v21.668a1.38 1.38 0 01-1.378 1.378H44.186zM58.83 37.6v-2.94h2.939v1.562c0 .486.092.95.259 1.378H58.83zm3.198-29.796a3.79 3.79 0 00-.259 1.378v23.046h-2.94v-1.561c0-2.1-1.709-3.81-3.81-3.81H27.98c-2.1 0-3.81 1.71-3.81 3.81v1.561h-2.939V9.181c0-.486-.092-.95-.259-1.378h41.056zM21.231 36.22v-1.562h2.94v2.94h-3.2a3.76 3.76 0 00.26-1.378zm-3.81 3.81h6.75v2.939h-9.654v-2.94h2.904zm-8.275 0h2.94v2.939h-2.94v-2.94zm-4.029 8.183v-2.686c0-.07.057-.127.127-.127H24.17v2.94H5.244a.127.127 0 01-.127-.127zm19.053 2.559v1.561c0 2.1 1.71 3.81 3.81 3.81h9.62v2.94H7.803v-8.311H24.17zM2.433 75.07v-2.813h13.682v2.94H2.559a.127.127 0 01-.127-.127zm2.685 5.371V77.63h10.997v2.812c0 .043.004.085.006.127H5.244a.127.127 0 01-.127-.127zm24.17.127v-2.94h2.94v2.94h-2.94zm4.156-5.37h-6.761a.081.081 0 01-.08-.082v-2.778a.08.08 0 01.08-.08h8.149a.08.08 0 01.081.08v2.778a.081.081 0 01-.081.081h-1.389zm1.216 5.37v-2.94h.173a2.515 2.515 0 002.513-2.512v-2.778a2.515 2.515 0 00-2.513-2.512h-8.149a2.515 2.515 0 00-2.512 2.513v2.777a2.515 2.515 0 002.512 2.513h.173v2.94h-8.184a.127.127 0 01-.127-.128V68.356c0-.81.66-1.47 1.47-1.47H41.5c.81 0 1.47.66 1.47 1.47v12.085c0 .07-.057.127-.127.127h-8.184zm45.91-5.498c0 .07-.058.127-.128.127h-35.04v-2.94h35.167v2.813zm-5.372-15.986H45.401v-2.94h9.619c2.1 0 3.81-1.71 3.81-3.81v-1.561h16.367v8.31zm2.686-13.556v2.686c0 .07-.057.127-.127.127H58.83v-2.94h18.926c.07 0 .127.057.127.127zm-4.029-2.558h-2.94v-2.94h2.94v2.94zm5.336-5.371H65.58a1.38 1.38 0 01-1.38-1.379V9.181c0-.76.618-1.378 1.378-1.378H79.19c.76 0 1.378.618 1.378 1.378v12.304c.014.675.014.407.014 1.078 0 .672 0 .806-.014 1.354V36.22a1.38 1.38 0 01-1.378 1.378z" fill="url(#paint2_linear)"/><path d="M72.385 10.743a5.25 5.25 0 00-5.244 5.244 5.25 5.25 0 005.244 5.244 5.25 5.25 0 005.244-5.244 5.25 5.25 0 00-5.244-5.244zm0 8.056a2.816 2.816 0 01-2.813-2.812 2.816 2.816 0 012.813-2.813 2.816 2.816 0 012.813 2.813 2.816 2.816 0 01-2.813 2.812z" fill="url(#paint3_linear)"/><path d="M72.385 24.17a5.25 5.25 0 00-5.244 5.245 5.25 5.25 0 005.244 5.244 5.25 5.25 0 005.244-5.244 5.25 5.25 0 00-5.244-5.245zm0 8.057a2.816 2.816 0 01-2.813-2.812 2.816 2.816 0 012.813-2.813 2.816 2.816 0 012.813 2.813 2.816 2.816 0 01-2.813 2.812z" fill="url(#paint4_linear)"/><path d="M50.946 31.727H32.055a3.015 3.015 0 00-3.013 3.013v13.52a3.016 3.016 0 003.013 3.013h18.89a3.016 3.016 0 003.014-3.013V34.74s0 0 0 0a3.015 3.015 0 00-3.013-3.013zm-.42 3.432l.001 12.682H32.474V35.16h18.053z" fill="url(#paint5_linear)" stroke="#fff"/><path d="M14.644 56.144h2.685a1.216 1.216 0 100-2.432h-2.685a1.216 1.216 0 100 2.432z" fill="url(#paint6_linear)"/><path d="M65.67 56.144h2.686a1.216 1.216 0 100-2.432h-2.685a1.216 1.216 0 100 2.432z" fill="url(#paint7_linear)"/><path d="M54.928 66.886h2.685a1.216 1.216 0 100-2.431h-2.685a1.216 1.216 0 000 2.431z" fill="url(#paint8_linear)"/><path d="M65.67 66.886h2.686a1.216 1.216 0 100-2.431h-2.685a1.216 1.216 0 100 2.431z" fill="url(#paint9_linear)"/><path fill="#55287D" d="M31.427 34.65h20.146v13.699H31.427z"/><defs><linearGradient id="paint0_linear" x1="10.615" y1="10.742" x2="10.615" y2="21.231" gradientUnits="userSpaceOnUse"><stop offset="1" stop-color="#55287D"/><stop offset="1" stop-color="#CD2288"/></linearGradient><linearGradient id="paint1_linear" x1="10.615" y1="24.17" x2="10.615" y2="34.659" gradientUnits="userSpaceOnUse"><stop offset="1" stop-color="#55287D"/><stop offset="1" stop-color="#CD2288"/></linearGradient><linearGradient id="paint2_linear" x1="41.5" y1="0" x2="41.5" y2="83" gradientUnits="userSpaceOnUse"><stop offset=".771" stop-color="#55287D"/><stop offset="1" stop-color="#CD2288"/></linearGradient><linearGradient id="paint3_linear" x1="72.385" y1="10.743" x2="72.385" y2="21.231" gradientUnits="userSpaceOnUse"><stop offset="1" stop-color="#55287D"/><stop offset="1" stop-color="#CD2288"/></linearGradient><linearGradient id="paint4_linear" x1="72.385" y1="24.17" x2="72.385" y2="34.659" gradientUnits="userSpaceOnUse"><stop offset="1" stop-color="#55287D"/><stop offset="1" stop-color="#CD2288"/></linearGradient><linearGradient id="paint5_linear" x1="41.5" y1="32.227" x2="41.5" y2="50.773" gradientUnits="userSpaceOnUse"><stop offset="1" stop-color="#55287D"/><stop offset="1" stop-color="#CD2288"/></linearGradient><linearGradient id="paint6_linear" x1="15.986" y1="53.712" x2="15.986" y2="56.144" gradientUnits="userSpaceOnUse"><stop offset=".599" stop-color="#55287D"/><stop offset="1" stop-color="#CD2288"/></linearGradient><linearGradient id="paint7_linear" x1="67.014" y1="53.712" x2="67.014" y2="56.144" gradientUnits="userSpaceOnUse"><stop offset=".599" stop-color="#55287D"/><stop offset="1" stop-color="#CD2288"/></linearGradient><linearGradient id="paint8_linear" x1="56.27" y1="64.455" x2="56.27" y2="66.886" gradientUnits="userSpaceOnUse"><stop offset=".599" stop-color="#55287D"/><stop offset="1" stop-color="#CD2288"/></linearGradient><linearGradient id="paint9_linear" x1="67.014" y1="64.455" x2="67.014" y2="66.886" gradientUnits="userSpaceOnUse"><stop offset=".599" stop-color="#55287D"/><stop offset="1" stop-color="#CD2288"/></linearGradient></defs></svg>