<svg width="80" height="80" fill="none" xmlns="http://www.w3.org/2000/svg"><path d="M72.041 57.937l1.596-1.418.047.014 3.05-3.051c1.87-1.868 2.949-4.361 3.042-7.112a7.297 7.297 0 00-2.116-5.396l-.24-.24c-.084-.085-.177-.16-.265-.241V17.928C77.156 8.043 69.114 0 59.228 0a17.873 17.873 0 00-17.685 14.982l-2.695 16.166a9.535 9.535 0 00-.13 1.564v.33a9.48 9.48 0 00.617 3.302L17.369 38.14a5.08 5.08 0 00-2.994-.984 5.13 5.13 0 00-5.125 5.125c0 1.288.493 2.453 1.281 3.355v31.239H.281v2.563H79.72v-1.282c0-5.217-2.397-9.179-4.511-12.675-1.661-2.742-3.09-5.123-3.166-7.544zm-8.167 3.833a9.142 9.142 0 01-6.035 2.308h-.033a9.09 9.09 0 01-7.136-3.43l-6.542-8.177 4.567-3.262 6.27 8.36-1.777 1.777L55 61.158l2.032-2.032a6.38 6.38 0 01.96-.79l6.57-4.408 6.156 1.759-6.845 6.083zm-16.622 7.252c-4.051-2.54-6.932-6.59-7.94-11.294l-.465-2.17a5.869 5.869 0 01-.128-1.214c0-1.173.37-2.303 1.02-3.258l8.93 11.163c.603.754 1.29 1.412 2.036 1.984a48.633 48.633 0 00-3.453 4.79zm-28.07-28.458l20.427-1.67-1.925 2.63.006.005-.078.078-18.194 1.481c.042-.264.082-.53.082-.807 0-.605-.124-1.177-.318-1.717zm25.465-4.211a6.401 6.401 0 002.564 2.562l-2.19 1.603c-.314.054-.626.13-.93.255-.58-.483-1.286-.772-2.024-.895l2.58-3.525zm8.272-16.827l7.876.606a3.862 3.862 0 013.549 3.832v10.422c0 2.455.36 4.887 1.038 7.244l-.06.078a7.415 7.415 0 00-.873 1.843c-1.2-.003-2.387-.597-3.07-1.622l-.879-1.317V36.07l-2.333-.389a6.41 6.41 0 01-1.794-.588c.167-.568.283-1.158.283-1.78 0-2.62-1.585-4.872-3.843-5.864v-7.94c.035.003.069.015.106.017zm4.033 36.422l-4.084-5.446a7.045 7.045 0 012.474-4.601l3.603-3.002.302.452a6.21 6.21 0 004.723 2.747l-.813 5.689-6.205 4.161zm-8.011-14.193a4.508 4.508 0 00-.596-.494l2.14-1.565a6.366 6.366 0 004.691-2.337c.805.407 1.662.7 2.57.852l.191.032V40.4L53.7 43.932a9.603 9.603 0 00-2.81 3.935l-.64-.855v-2.095a4.448 4.448 0 00-1.31-3.162zm5.153-8.443a3.848 3.848 0 01-3.844 3.844 3.848 3.848 0 01-3.844-3.843 3.848 3.848 0 013.844-3.844 3.848 3.848 0 013.844 3.843zM38.719 44.877c0-.477.193-.943.53-1.28l.751-.751c.674-.675 1.885-.676 2.563.001l1.027 1.025 1.33-.663a1.91 1.91 0 012.767 1.71v1.863l-5.162 3.687-3.41-4.261a1.823 1.823 0 01-.396-1.134v-.197zm36.204 6.794l-1.983 1.985-7.17-2.049.929-6.5a4.828 4.828 0 01.754-1.977A4.772 4.772 0 0171.432 41h.444a5.32 5.32 0 013.733 1.545l.24.241c.914.915 1.414 2.19 1.364 3.591a7.819 7.819 0 01-2.29 5.293zM41.281 32.712c0-.382.032-.767.095-1.143l2.695-16.167a15.319 15.319 0 0115.157-12.84c8.473 0 15.366 6.894 15.366 15.367v21a7.853 7.853 0 00-2.718-.492h-.444a7.316 7.316 0 00-3.94 1.16 23.729 23.729 0 01-.586-5.21V23.964c0-3.328-2.598-6.133-5.915-6.387l-7.876-.607a3.118 3.118 0 01-2.865-3.094c0-1.04.516-2.004 1.383-2.582l1.89-1.26-1.42-2.132-1.891 1.26a5.655 5.655 0 00-2.525 4.714c0 1.953 1.024 3.686 2.563 4.707v8.322c-3.452 0-6.256 2.751-6.383 6.173l-2.003 2.736a6.947 6.947 0 01-.583-2.773v-.33zm-26.906 7.007a2.565 2.565 0 012.563 2.562 2.565 2.565 0 01-2.563 2.563 2.565 2.565 0 01-2.563-2.563 2.565 2.565 0 012.563-2.562zm-1.281 7.505c.412.108.836.182 1.281.182.445 0 .869-.074 1.281-.182v29.651h-2.562v-29.65zm5.125 29.651V45.759l17.994-1.466c-.026.193-.057.384-.057.583v.196c0 .988.341 1.959.959 2.734l.97 1.213a8.368 8.368 0 00-1.929 5.325c0 .587.063 1.176.186 1.752l.465 2.17c1.16 5.412 4.487 10.07 9.165 12.973-.975 1.845-1.762 3.797-2.027 5.635H18.219v.001zm28.315 0c.726-3.868 4.345-8.861 6.387-11.306a11.682 11.682 0 004.885 1.071h.042a11.697 11.697 0 007.728-2.956l4.176-3.711c.56 2.36 1.88 4.55 3.263 6.835 1.839 3.038 3.735 6.17 4.085 10.066H46.534v.001z" fill="url(#paint0_linear)"/><defs><linearGradient id="paint0_linear" x1="40.031" y1="0" x2="40.031" y2="79.438" gradientUnits="userSpaceOnUse"><stop offset=".656" stop-color="#55287D"/><stop offset="1" stop-color="#CD2288"/></linearGradient></defs></svg>