<svg width="66" height="64" fill="none" xmlns="http://www.w3.org/2000/svg"><path d="M19.458 53.905l.352.349.352-.349L51.89 22.522l.359-.355-.359-.356-8.63-8.55-.35-.349-.353.348L10.83 44.643l-.36.357.36.355 8.628 8.551zM61.31 13.131l.355-.355-.357-.354-8.63-8.55-.353-.351-.352.352-6.276 6.276-.355.355.357.354 8.63 8.55.353.35.352-.351 6.276-6.276zM4.713 59.474v.5h5.415a9.5 9.5 0 006.687-2.752l.205-.203.359-.356-.359-.355-8.629-8.55-.352-.35-.352.35-.161.159a9.5 9.5 0 00-2.813 6.748v4.809zM63.303 9.58a4.5 4.5 0 010 6.393l-43.88 43.482a13.5 13.5 0 01-9.502 3.91H1.26v-8.43a13.5 13.5 0 013.997-9.59L49.16 1.843a4.5 4.5 0 016.334 0l7.81 7.738z" fill="url(#paint0_linear)" stroke="#fff"/><defs><linearGradient id="paint0_linear" x1="34" y1="-2" x2="34" y2="63.867" gradientUnits="userSpaceOnUse"><stop offset=".297" stop-color="#55287D"/><stop offset="1" stop-color="#CD2288"/></linearGradient></defs></svg>