<svg width="106" height="82" fill="none" xmlns="http://www.w3.org/2000/svg"><path d="M101.473 29.027h.5V6.113c0-1.405-1.154-2.538-2.562-2.538H6.187c-1.407 0-2.562 1.133-2.562 2.538v22.914h97.848zm-79.112 3.575v-.5h-9.25V77.93h13.375V56.554h-2.562a1.55 1.55 0 01-1.563-1.538V32.602zm7.75 23.951h-.5V77.93h13.376V56.553h-2.563a1.55 1.55 0 01-1.562-1.537V32.102h-5.126v22.914a1.55 1.55 0 01-1.562 1.537H30.11zm16.5 0h-.5V77.93h13.376V32.102h-9.25v22.914a1.55 1.55 0 01-1.563 1.537h-2.062zm16.5-24.451h-.5V77.93h13.376V56.553h-2.562a1.55 1.55 0 01-1.563-1.537V32.102h-8.75zm16.501 24.451h-.5V77.93h13.375V32.102h-9.25v22.914a1.55 1.55 0 01-1.563 1.537h-2.062zM4.125 32.102h-.5v43.29c0 1.406 1.155 2.538 2.562 2.538h3.8V32.102H4.124zM95.612 77.43v.5h3.799c1.408 0 2.562-1.132 2.562-2.537V32.102h-6.36V77.43zM6.187.5h93.224c3.141 0 5.687 2.524 5.687 5.613v69.28c0 3.089-2.546 5.613-5.687 5.613H6.187C3.047 81.006.5 78.482.5 75.393V6.113C.5 3.024 3.046.5 6.187.5z" fill="url(#paint0_linear)" stroke="#fff"/><path d="M21.478 18.259c1.09-2.6-.158-5.58-2.79-6.658-2.63-1.078-5.648.156-6.739 2.755-1.09 2.6.159 5.581 2.79 6.659 2.631 1.077 5.648-.157 6.739-2.756z" fill="url(#paint1_linear)"/><path d="M90.888 20.983c2.631-1.077 3.88-4.058 2.79-6.658-1.091-2.6-4.109-3.833-6.74-2.755-2.631 1.077-3.88 4.058-2.79 6.657 1.091 2.6 4.109 3.834 6.74 2.756z" fill="url(#paint2_linear)"/><path fill-rule="evenodd" clip-rule="evenodd" d="M30.111 14.263c1.14 0 2.063-.912 2.063-2.037 0-1.126-.924-2.038-2.063-2.038h-.001a2.05 2.05 0 00-2.062 2.038c0 1.125.924 2.037 2.063 2.037z" fill="url(#paint3_linear)"/><path fill-rule="evenodd" clip-rule="evenodd" d="M30.111 22.414c1.14 0 2.063-.912 2.063-2.038 0-1.125-.924-2.037-2.063-2.037h-.001a2.05 2.05 0 00-2.062 2.038c0 1.125.924 2.037 2.063 2.037z" fill="url(#paint4_linear)"/><path fill-rule="evenodd" clip-rule="evenodd" d="M38.361 14.263c1.14 0 2.063-.912 2.063-2.037 0-1.126-.924-2.038-2.063-2.038h-.001a2.05 2.05 0 00-2.062 2.038c0 1.125.924 2.037 2.063 2.037z" fill="url(#paint5_linear)"/><path fill-rule="evenodd" clip-rule="evenodd" d="M38.361 22.414c1.14 0 2.063-.912 2.063-2.038 0-1.125-.924-2.037-2.063-2.037h-.001a2.05 2.05 0 00-2.062 2.038c0 1.125.924 2.037 2.063 2.037z" fill="url(#paint6_linear)"/><path fill-rule="evenodd" clip-rule="evenodd" d="M46.611 14.263c1.14 0 2.063-.912 2.063-2.037 0-1.126-.924-2.038-2.063-2.038h-.002a2.05 2.05 0 00-2.061 2.038c0 1.125.924 2.037 2.063 2.037z" fill="url(#paint7_linear)"/><path fill-rule="evenodd" clip-rule="evenodd" d="M46.611 22.414c1.14 0 2.063-.912 2.063-2.038 0-1.125-.924-2.037-2.063-2.037h-.002a2.05 2.05 0 00-2.061 2.038c0 1.125.924 2.037 2.063 2.037z" fill="url(#paint8_linear)"/><path fill-rule="evenodd" clip-rule="evenodd" d="M54.861 14.263c1.139 0 2.063-.912 2.063-2.037 0-1.126-.924-2.038-2.063-2.038h-.001a2.05 2.05 0 00-2.062 2.038c0 1.125.924 2.037 2.063 2.037z" fill="url(#paint9_linear)"/><path fill-rule="evenodd" clip-rule="evenodd" d="M54.861 22.414c1.139 0 2.063-.912 2.063-2.038 0-1.125-.924-2.037-2.063-2.037h-.001a2.05 2.05 0 00-2.062 2.038c0 1.125.924 2.037 2.063 2.037z" fill="url(#paint10_linear)"/><path d="M73.058 18.253c1.09-2.6-.158-5.58-2.79-6.658-2.63-1.078-5.648.156-6.739 2.756-1.09 2.6.159 5.58 2.79 6.658 2.631 1.077 5.648-.157 6.74-2.756z" fill="url(#paint11_linear)"/><defs><linearGradient id="paint0_linear" x1="52.799" y1="0" x2="52.799" y2="81.506" gradientUnits="userSpaceOnUse"><stop offset=".766" stop-color="#55287D"/><stop offset="1" stop-color="#CD2288"/></linearGradient><linearGradient id="paint1_linear" x1="11.949" y1="14.357" x2="21.444" y2="18.34" gradientUnits="userSpaceOnUse"><stop offset="1" stop-color="#55287D"/><stop offset="1" stop-color="#CD2288"/></linearGradient><linearGradient id="paint2_linear" x1="86.938" y1="11.569" x2="90.807" y2="21.017" gradientUnits="userSpaceOnUse"><stop offset="1" stop-color="#55287D"/><stop offset="1" stop-color="#CD2288"/></linearGradient><linearGradient id="paint3_linear" x1="30.111" y1="10.188" x2="30.111" y2="14.263" gradientUnits="userSpaceOnUse"><stop offset="1" stop-color="#55287D"/><stop offset="1" stop-color="#CD2288"/></linearGradient><linearGradient id="paint4_linear" x1="30.111" y1="18.339" x2="30.111" y2="22.414" gradientUnits="userSpaceOnUse"><stop offset="1" stop-color="#55287D"/><stop offset="1" stop-color="#CD2288"/></linearGradient><linearGradient id="paint5_linear" x1="38.361" y1="10.188" x2="38.361" y2="14.263" gradientUnits="userSpaceOnUse"><stop offset="1" stop-color="#55287D"/><stop offset="1" stop-color="#CD2288"/></linearGradient><linearGradient id="paint6_linear" x1="38.361" y1="18.339" x2="38.361" y2="22.414" gradientUnits="userSpaceOnUse"><stop offset="1" stop-color="#55287D"/><stop offset="1" stop-color="#CD2288"/></linearGradient><linearGradient id="paint7_linear" x1="46.611" y1="10.188" x2="46.611" y2="14.263" gradientUnits="userSpaceOnUse"><stop offset="1" stop-color="#55287D"/><stop offset="1" stop-color="#CD2288"/></linearGradient><linearGradient id="paint8_linear" x1="46.611" y1="18.339" x2="46.611" y2="22.414" gradientUnits="userSpaceOnUse"><stop offset="1" stop-color="#55287D"/><stop offset="1" stop-color="#CD2288"/></linearGradient><linearGradient id="paint9_linear" x1="54.861" y1="10.188" x2="54.861" y2="14.263" gradientUnits="userSpaceOnUse"><stop offset="1" stop-color="#55287D"/><stop offset="1" stop-color="#CD2288"/></linearGradient><linearGradient id="paint10_linear" x1="54.861" y1="18.339" x2="54.861" y2="22.414" gradientUnits="userSpaceOnUse"><stop offset="1" stop-color="#55287D"/><stop offset="1" stop-color="#CD2288"/></linearGradient><linearGradient id="paint11_linear" x1="63.529" y1="14.351" x2="73.024" y2="18.334" gradientUnits="userSpaceOnUse"><stop offset="1" stop-color="#55287D"/><stop offset="1" stop-color="#CD2288"/></linearGradient></defs></svg>