<svg width="941" height="655" fill="none" xmlns="http://www.w3.org/2000/svg"><path opacity=".7" d="M1 654c18.609-43.941 79.903-128.54 176.39-128.54 81.11 0 142.61 72.714 212.044 72.714 66.894 0 152.149-62.174 159.033-97.577 6.568-33.777-32.838-101.8 0-146.836 42.075-57.702 171.033-52.542 227.525-52.542 27.008 0 77.687 2.815 105.084-40.344 27.396-43.16 37.373-160.284 38.937-213.452" stroke="url(#a)" stroke-width="2"/><path d="M920.162 2.856c-1.087 11.438-.262 31.64-17.662 37.644l17.662-37.644L938.5 36.5c-17.319 2.561-17.97-20.558-18.333-33.462l-.005-.182z" fill="#C715B2"/><path d="M920.013 47.892l.149-45.036m0 0c-1.087 11.438-.262 31.64-17.662 37.644l17.662-37.644zm0 0c.363 12.868.938 36.217 18.338 33.644L920.162 2.856z" stroke="#C715B2" stroke-width="2"/><defs><linearGradient id="a" x1="1" y1="309.5" x2="920" y2="308" gradientUnits="userSpaceOnUse"><stop stop-color="#08F4EA"/><stop offset="1" stop-color="#F80CC9"/></linearGradient></defs><svg width="26" height="26" xmlns="http://www.w3.org/2000/svg"><circle cx="13" cy="13" r="13" fill="#fff"/><circle cx="13" cy="13" r="6" fill="#3C9BC6"/></svg></svg><svg width="26" height="26" fill="none" xmlns="http://www.w3.org/2000/svg"><circle cx="13" cy="13" r="13" fill="#fff"/><circle cx="13" cy="13" r="6" fill="#3C9BC6"/></svg>