<svg width="52" height="44" viewBox="0 0 52 44" fill="none" xmlns="http://www.w3.org/2000/svg">
<path d="M43.2041 16.7231H22.751C22.395 16.7231 22.1064 17.0117 22.1064 17.3677C22.1064 17.7236 22.395 18.0122 22.751 18.0122H43.2041C43.5601 18.0122 43.8486 17.7236 43.8486 17.3677C43.8486 17.0117 43.5601 16.7231 43.2041 16.7231Z" fill="url(#paint0_linear)"/>
<path d="M43.2041 21.6504H22.751C22.395 21.6504 22.1064 21.939 22.1064 22.2949C22.1064 22.6509 22.395 22.9395 22.751 22.9395H43.2041C43.5601 22.9395 43.8486 22.6509 43.8486 22.2949C43.8486 21.939 43.5601 21.6504 43.2041 21.6504Z" fill="url(#paint1_linear)"/>
<path d="M43.2041 26.5776H22.751C22.395 26.5776 22.1064 26.8662 22.1064 27.2222C22.1064 27.5781 22.395 27.8667 22.751 27.8667H43.2041C43.5601 27.8667 43.8486 27.5781 43.8486 27.2222C43.8486 26.8662 43.5601 26.5776 43.2041 26.5776Z" fill="url(#paint2_linear)"/>
<path d="M45.281 32.5297H45.2809C44.8188 32.5357 44.4472 32.912 44.4472 33.3742V39.5277L39.5471 33.324C39.547 33.324 39.547 33.324 39.547 33.324C39.1491 32.8201 38.5516 32.5306 37.9095 32.5306H20.7038C19.458 32.5306 18.4441 31.5167 18.4441 30.2709V14.8351C18.4441 13.5893 19.458 12.5754 20.7038 12.5754H45.2515C46.4973 12.5754 47.5112 13.5893 47.5112 14.8351V30.271C47.5112 31.5002 46.5102 32.5141 45.281 32.5297ZM45.2515 10.8864H20.7038C18.5263 10.8864 16.7551 12.6576 16.7551 14.8352V30.271C16.7551 32.4485 18.5262 34.2198 20.7038 34.2198H37.9095C38.0323 34.2198 38.1454 34.2745 38.2216 34.371L43.7779 41.4052C44.0345 41.7302 44.4118 41.9096 44.8078 41.9096C44.9547 41.9096 45.1034 41.8849 45.2485 41.8345C45.7867 41.6475 46.1364 41.1559 46.1364 40.5861V34.1182C47.8862 33.7132 49.2003 32.1353 49.2003 30.271V14.8351C49.2003 12.6576 47.4291 10.8864 45.2515 10.8864Z" fill="url(#paint3_linear)" stroke="white" stroke-width="0.4"/>
<path d="M14.4956 21.7438C14.0547 21.8064 13.6599 22.0334 13.3839 22.3828L8.9563 27.9881V22.3703C8.9563 22.0175 8.67271 21.7303 8.32002 21.7258C7.20017 21.7115 6.28906 20.7888 6.28906 19.6689V6.2316C6.28906 5.09697 7.2122 4.17383 8.34684 4.17383H29.7163C30.8509 4.17383 31.7741 5.09697 31.7741 6.2316V8.71795C31.7741 9.0739 32.0627 9.36248 32.4186 9.36248C32.7746 9.36248 33.0631 9.0739 33.0631 8.71795V6.2316C33.0631 4.38618 31.5617 2.88477 29.7163 2.88477H8.34684C6.50141 2.88477 5 4.38618 5 6.2316V19.6689C5 21.2731 6.14907 22.6284 7.66733 22.9452V28.6485C7.66733 29.1064 7.9468 29.4994 8.37941 29.6496C8.49671 29.6903 8.61616 29.7101 8.73373 29.7101C9.04972 29.7101 9.35179 29.5672 9.55864 29.3054L14.3955 23.1818C14.4653 23.0934 14.5653 23.036 14.6768 23.0201C15.0293 22.9701 15.2744 22.6438 15.2243 22.2913C15.1743 21.9389 14.8485 21.6936 14.4956 21.7438Z" fill="url(#paint4_linear)"/>
<defs>
<linearGradient id="paint0_linear" x1="22.1064" y1="17.3677" x2="43.8486" y2="17.3677" gradientUnits="userSpaceOnUse">
<stop stop-color="white"/>
<stop offset="1" stop-color="white"/>
</linearGradient>
<linearGradient id="paint1_linear" x1="22.1064" y1="22.2949" x2="43.8486" y2="22.2949" gradientUnits="userSpaceOnUse">
<stop stop-color="white"/>
<stop offset="1" stop-color="white"/>
</linearGradient>
<linearGradient id="paint2_linear" x1="22.1064" y1="27.2222" x2="43.8486" y2="27.2222" gradientUnits="userSpaceOnUse">
<stop stop-color="white"/>
<stop offset="1" stop-color="white"/>
</linearGradient>
<linearGradient id="paint3_linear" x1="16.9551" y1="26.398" x2="49.0003" y2="26.398" gradientUnits="userSpaceOnUse">
<stop stop-color="white"/>
<stop offset="1" stop-color="white"/>
</linearGradient>
<linearGradient id="paint4_linear" x1="5" y1="16.2974" x2="33.0631" y2="16.2974" gradientUnits="userSpaceOnUse">
<stop stop-color="white"/>
<stop offset="1" stop-color="white"/>
</linearGradient>
</defs>
</svg>
