<svg width="26" height="26" viewBox="0 0 26 26" fill="none" xmlns="http://www.w3.org/2000/svg">
<path d="M12.9994 0C7.72182 0 3.42773 4.29409 3.42773 9.57215C3.42773 10.9489 3.70952 12.2633 4.26484 13.4794C6.65801 18.7162 11.2464 24.2452 12.596 25.8148C12.6971 25.9321 12.8445 25.9997 12.9996 25.9997C13.1548 25.9997 13.3022 25.9321 13.4033 25.8148C14.7523 24.2454 19.3407 18.7167 21.7347 13.4794C22.2903 12.2633 22.5718 10.9489 22.5718 9.57215C22.5712 4.29409 18.2772 0 12.9994 0ZM12.9994 14.544C10.2579 14.544 8.02729 12.3134 8.02729 9.57189C8.02729 6.83014 10.2579 4.59955 12.9994 4.59955C15.7408 4.59955 17.9714 6.83014 17.9714 9.57189C17.9717 12.3134 15.7411 14.544 12.9994 14.544Z" fill="white"/>
</svg>
