<svg width="27" height="28" viewBox="0 0 27 28" fill="none" xmlns="http://www.w3.org/2000/svg">
<path d="M26.4634 5.67208C25.5099 6.09865 24.4722 6.40564 23.4034 6.52521C24.5131 5.84153 25.3441 4.76144 25.7405 3.48757C24.6992 4.12996 23.5584 4.58042 22.3688 4.81896C21.8717 4.26774 21.2703 3.82862 20.6023 3.52895C19.9343 3.22929 19.214 3.07549 18.4862 3.07716C15.5414 3.07716 13.1732 5.55252 13.1732 8.59016C13.1732 9.01672 13.223 9.44328 13.304 9.85369C8.89474 9.61456 4.96219 7.43004 2.34776 4.0854C1.87139 4.9292 1.62175 5.88997 1.62482 6.86775C1.62482 8.78082 2.56277 10.4677 3.99308 11.4598C3.15018 11.4253 2.32702 11.1851 1.59055 10.7585V10.8264C1.59055 13.5053 3.41659 15.7254 5.85028 16.236C5.39333 16.3591 4.92326 16.422 4.45115 16.4234C4.10526 16.4234 3.77806 16.3879 3.44775 16.3394C4.12084 18.5239 6.08088 20.1106 8.41485 20.1623C6.58881 21.6456 4.30157 22.5181 1.81802 22.5181C1.37242 22.5181 0.961088 22.5019 0.53418 22.4502C2.88997 24.0175 5.68513 24.9223 8.6953 24.9223C18.4675 24.9223 23.8147 16.5268 23.8147 9.2397C23.8147 9.00056 23.8147 8.76143 23.7991 8.5223C24.8337 7.73703 25.7405 6.76434 26.4634 5.67208Z" fill="white"/>
</svg>
