<?xml version="1.0" encoding="utf-8"?>
<!-- Generator: Adobe Illustrator 21.1.0, SVG Export Plug-In . SVG Version: 6.00 Build 0)  -->
<svg version="1.1" id="Capa_1" xmlns="http://www.w3.org/2000/svg" xmlns:xlink="http://www.w3.org/1999/xlink" x="0px" y="0px"
	 viewBox="0 0 512 729.5" style="enable-background:new 0 0 512 729.5;" xml:space="preserve">
<style type="text/css">
	.st0{fill:#5FA9D4;}
</style>
<g>
	<g>
		<g>
			<path class="st0" d="M256,0C114.6,0,0,114.6,0,256c0,10.8,0.9,21.4,2.2,31.8c21.9,200,237.2,430.4,237.2,430.4
				c3.8,4.3,7.5,6.9,11.1,8.9l0.2,0.1l7.2,2.3l7.2-2.3l0.2-0.1c3.6-1.9,7.3-4.7,11.1-8.9c0,0,212.2-230.9,233.6-430.9
				c1.3-10.3,2.1-20.8,2.1-31.4C512,114.6,397.4,0,256,0z M256,420.7c-90.8,0-164.7-73.9-164.7-164.7S165.2,91.3,256,91.3
				S420.6,165.2,420.6,256S346.8,420.7,256,420.7z"/>
		</g>
	</g>
</g>
</svg>
