<svg xmlns="http://www.w3.org/2000/svg" width="1981" height="34.895" viewBox="0 0 1981 34.895"><defs><style>.a{fill:none;stroke:#fff;opacity:0.2;}</style></defs><g transform="translate(1.947 -4727.553)"><g transform="translate(-1.447 4762.447) rotate(-90)"><path class="a" d="M0,0H34.895" transform="translate(0 495)"/><path class="a" d="M0,0H34.895" transform="translate(0 424)"/><path class="a" d="M0,0H34.895" transform="translate(0 353)"/><path class="a" d="M0,0H34.895" transform="translate(0 282)"/><path class="a" d="M0,0H34.895" transform="translate(0 211)"/><path class="a" d="M0,0H34.895" transform="translate(0 140)"/><path class="a" d="M0,0H34.895" transform="translate(0 71)"/><path class="a" d="M0,0H34.895"/><path class="a" d="M0,0H11.471" transform="translate(23.423 488)"/><path class="a" d="M0,0H11.471" transform="translate(23.423 417)"/><path class="a" d="M0,0H11.471" transform="translate(23.423 346)"/><path class="a" d="M0,0H11.471" transform="translate(23.423 275)"/><path class="a" d="M0,0H11.471" transform="translate(23.423 204)"/><path class="a" d="M0,0H11.471" transform="translate(23.423 135)"/><path class="a" d="M0,0H11.471" transform="translate(23.423 64)"/><path class="a" d="M0,0H11.471" transform="translate(23.423 481)"/><path class="a" d="M0,0H11.471" transform="translate(23.423 410)"/><path class="a" d="M0,0H11.471" transform="translate(23.423 339)"/><path class="a" d="M0,0H11.471" transform="translate(23.423 268)"/><path class="a" d="M0,0H11.471" transform="translate(23.423 197)"/><path class="a" d="M0,0H11.471" transform="translate(23.423 128)"/><path class="a" d="M0,0H11.471" transform="translate(23.423 57)"/><path class="a" d="M0,0H11.471" transform="translate(23.423 474)"/><path class="a" d="M0,0H11.471" transform="translate(23.423 403)"/><path class="a" d="M0,0H11.471" transform="translate(23.423 332)"/><path class="a" d="M0,0H11.471" transform="translate(23.423 261)"/><path class="a" d="M0,0H11.471" transform="translate(23.423 190)"/><path class="a" d="M0,0H11.471" transform="translate(23.423 121)"/><path class="a" d="M0,0H11.471" transform="translate(23.423 50)"/><path class="a" d="M0,0H11.471" transform="translate(23.423 467)"/><path class="a" d="M0,0H11.471" transform="translate(23.423 396)"/><path class="a" d="M0,0H11.471" transform="translate(23.423 325)"/><path class="a" d="M0,0H11.471" transform="translate(23.423 254)"/><path class="a" d="M0,0H11.471" transform="translate(23.423 183)"/><path class="a" d="M0,0H11.471" transform="translate(23.423 114)"/><path class="a" d="M0,0H11.471" transform="translate(23.423 43)"/><path class="a" d="M0,0H22.942" transform="translate(11.952 459)"/><path class="a" d="M0,0H22.942" transform="translate(11.952 388)"/><path class="a" d="M0,0H22.942" transform="translate(11.952 317)"/><path class="a" d="M0,0H22.942" transform="translate(11.952 246)"/><path class="a" d="M0,0H22.942" transform="translate(11.952 175)"/><path class="a" d="M0,0H22.942" transform="translate(11.952 106)"/><path class="a" d="M0,0H22.942" transform="translate(11.952 35)"/><path class="a" d="M0,0H11.471" transform="translate(23.423 452)"/><path class="a" d="M0,0H11.471" transform="translate(23.423 381)"/><path class="a" d="M0,0H11.471" transform="translate(23.423 310)"/><path class="a" d="M0,0H11.471" transform="translate(23.423 239)"/><path class="a" d="M0,0H11.471" transform="translate(23.423 168)"/><path class="a" d="M0,0H11.471" transform="translate(23.423 99)"/><path class="a" d="M0,0H11.471" transform="translate(23.423 28)"/><path class="a" d="M0,0H11.471" transform="translate(23.423 445)"/><path class="a" d="M0,0H11.471" transform="translate(23.423 374)"/><path class="a" d="M0,0H11.471" transform="translate(23.423 303)"/><path class="a" d="M0,0H11.471" transform="translate(23.423 232)"/><path class="a" d="M0,0H11.471" transform="translate(23.423 161)"/><path class="a" d="M0,0H11.471" transform="translate(23.423 92)"/><path class="a" d="M0,0H11.471" transform="translate(23.423 21)"/><path class="a" d="M0,0H11.471" transform="translate(23.423 438)"/><path class="a" d="M0,0H11.471" transform="translate(23.423 367)"/><path class="a" d="M0,0H11.471" transform="translate(23.423 296)"/><path class="a" d="M0,0H11.471" transform="translate(23.423 225)"/><path class="a" d="M0,0H11.471" transform="translate(23.423 154)"/><path class="a" d="M0,0H11.471" transform="translate(23.423 85)"/><path class="a" d="M0,0H11.471" transform="translate(23.423 14)"/><path class="a" d="M0,0H11.471" transform="translate(23.423 431)"/><path class="a" d="M0,0H11.471" transform="translate(23.423 360)"/><path class="a" d="M0,0H11.471" transform="translate(23.423 289)"/><path class="a" d="M0,0H11.471" transform="translate(23.423 218)"/><path class="a" d="M0,0H11.471" transform="translate(23.423 147)"/><path class="a" d="M0,0H11.471" transform="translate(23.423 78)"/><path class="a" d="M0,0H11.471" transform="translate(23.423 7)"/></g><g transform="translate(493.553 4762.447) rotate(-90)"><path class="a" d="M0,0H34.895" transform="translate(0 71)"/><path class="a" d="M0,0H34.895" transform="translate(0 142)"/><path class="a" d="M0,0H34.895" transform="translate(0 213)"/><path class="a" d="M0,0H34.895" transform="translate(0 284)"/><path class="a" d="M0,0H34.895" transform="translate(0 355)"/><path class="a" d="M0,0H34.895" transform="translate(0 424)"/><path class="a" d="M0,0H34.895" transform="translate(0 495)"/><path class="a" d="M0,0H11.471" transform="translate(23.423 7)"/><path class="a" d="M0,0H11.471" transform="translate(23.423 78)"/><path class="a" d="M0,0H11.471" transform="translate(23.423 149)"/><path class="a" d="M0,0H11.471" transform="translate(23.423 220)"/><path class="a" d="M0,0H11.471" transform="translate(23.423 291)"/><path class="a" d="M0,0H11.471" transform="translate(23.423 360)"/><path class="a" d="M0,0H11.471" transform="translate(23.423 431)"/><path class="a" d="M0,0H11.471" transform="translate(23.423 14)"/><path class="a" d="M0,0H11.471" transform="translate(23.423 85)"/><path class="a" d="M0,0H11.471" transform="translate(23.423 156)"/><path class="a" d="M0,0H11.471" transform="translate(23.423 227)"/><path class="a" d="M0,0H11.471" transform="translate(23.423 298)"/><path class="a" d="M0,0H11.471" transform="translate(23.423 367)"/><path class="a" d="M0,0H11.471" transform="translate(23.423 438)"/><path class="a" d="M0,0H11.471" transform="translate(23.423 21)"/><path class="a" d="M0,0H11.471" transform="translate(23.423 92)"/><path class="a" d="M0,0H11.471" transform="translate(23.423 163)"/><path class="a" d="M0,0H11.471" transform="translate(23.423 234)"/><path class="a" d="M0,0H11.471" transform="translate(23.423 305)"/><path class="a" d="M0,0H11.471" transform="translate(23.423 374)"/><path class="a" d="M0,0H11.471" transform="translate(23.423 445)"/><path class="a" d="M0,0H11.471" transform="translate(23.423 28)"/><path class="a" d="M0,0H11.471" transform="translate(23.423 99)"/><path class="a" d="M0,0H11.471" transform="translate(23.423 170)"/><path class="a" d="M0,0H11.471" transform="translate(23.423 241)"/><path class="a" d="M0,0H11.471" transform="translate(23.423 312)"/><path class="a" d="M0,0H11.471" transform="translate(23.423 381)"/><path class="a" d="M0,0H11.471" transform="translate(23.423 452)"/><path class="a" d="M0,0H22.942" transform="translate(11.952 36)"/><path class="a" d="M0,0H22.942" transform="translate(11.952 107)"/><path class="a" d="M0,0H22.942" transform="translate(11.952 178)"/><path class="a" d="M0,0H22.942" transform="translate(11.952 249)"/><path class="a" d="M0,0H22.942" transform="translate(11.952 320)"/><path class="a" d="M0,0H22.942" transform="translate(11.952 389)"/><path class="a" d="M0,0H22.942" transform="translate(11.952 460)"/><path class="a" d="M0,0H11.471" transform="translate(23.423 43)"/><path class="a" d="M0,0H11.471" transform="translate(23.423 114)"/><path class="a" d="M0,0H11.471" transform="translate(23.423 185)"/><path class="a" d="M0,0H11.471" transform="translate(23.423 256)"/><path class="a" d="M0,0H11.471" transform="translate(23.423 327)"/><path class="a" d="M0,0H11.471" transform="translate(23.423 396)"/><path class="a" d="M0,0H11.471" transform="translate(23.423 467)"/><path class="a" d="M0,0H11.471" transform="translate(23.423 50)"/><path class="a" d="M0,0H11.471" transform="translate(23.423 121)"/><path class="a" d="M0,0H11.471" transform="translate(23.423 192)"/><path class="a" d="M0,0H11.471" transform="translate(23.423 263)"/><path class="a" d="M0,0H11.471" transform="translate(23.423 334)"/><path class="a" d="M0,0H11.471" transform="translate(23.423 403)"/><path class="a" d="M0,0H11.471" transform="translate(23.423 474)"/><path class="a" d="M0,0H11.471" transform="translate(23.423 57)"/><path class="a" d="M0,0H11.471" transform="translate(23.423 128)"/><path class="a" d="M0,0H11.471" transform="translate(23.423 199)"/><path class="a" d="M0,0H11.471" transform="translate(23.423 270)"/><path class="a" d="M0,0H11.471" transform="translate(23.423 341)"/><path class="a" d="M0,0H11.471" transform="translate(23.423 410)"/><path class="a" d="M0,0H11.471" transform="translate(23.423 481)"/><path class="a" d="M0,0H11.471" transform="translate(23.423 64)"/><path class="a" d="M0,0H11.471" transform="translate(23.423 135)"/><path class="a" d="M0,0H11.471" transform="translate(23.423 206)"/><path class="a" d="M0,0H11.471" transform="translate(23.423 277)"/><path class="a" d="M0,0H11.471" transform="translate(23.423 348)"/><path class="a" d="M0,0H11.471" transform="translate(23.423 417)"/><path class="a" d="M0,0H11.471" transform="translate(23.423 488)"/></g><g transform="translate(988.553 4762.447) rotate(-90)"><path class="a" d="M0,0H34.895" transform="translate(0 71)"/><path class="a" d="M0,0H34.895" transform="translate(0 142)"/><path class="a" d="M0,0H34.895" transform="translate(0 213)"/><path class="a" d="M0,0H34.895" transform="translate(0 284)"/><path class="a" d="M0,0H34.895" transform="translate(0 355)"/><path class="a" d="M0,0H34.895" transform="translate(0 424)"/><path class="a" d="M0,0H34.895" transform="translate(0 495)"/><path class="a" d="M0,0H11.471" transform="translate(23.423 7)"/><path class="a" d="M0,0H11.471" transform="translate(23.423 78)"/><path class="a" d="M0,0H11.471" transform="translate(23.423 149)"/><path class="a" d="M0,0H11.471" transform="translate(23.423 220)"/><path class="a" d="M0,0H11.471" transform="translate(23.423 291)"/><path class="a" d="M0,0H11.471" transform="translate(23.423 360)"/><path class="a" d="M0,0H11.471" transform="translate(23.423 431)"/><path class="a" d="M0,0H11.471" transform="translate(23.423 14)"/><path class="a" d="M0,0H11.471" transform="translate(23.423 85)"/><path class="a" d="M0,0H11.471" transform="translate(23.423 156)"/><path class="a" d="M0,0H11.471" transform="translate(23.423 227)"/><path class="a" d="M0,0H11.471" transform="translate(23.423 298)"/><path class="a" d="M0,0H11.471" transform="translate(23.423 367)"/><path class="a" d="M0,0H11.471" transform="translate(23.423 438)"/><path class="a" d="M0,0H11.471" transform="translate(23.423 21)"/><path class="a" d="M0,0H11.471" transform="translate(23.423 92)"/><path class="a" d="M0,0H11.471" transform="translate(23.423 163)"/><path class="a" d="M0,0H11.471" transform="translate(23.423 234)"/><path class="a" d="M0,0H11.471" transform="translate(23.423 305)"/><path class="a" d="M0,0H11.471" transform="translate(23.423 374)"/><path class="a" d="M0,0H11.471" transform="translate(23.423 445)"/><path class="a" d="M0,0H11.471" transform="translate(23.423 28)"/><path class="a" d="M0,0H11.471" transform="translate(23.423 99)"/><path class="a" d="M0,0H11.471" transform="translate(23.423 170)"/><path class="a" d="M0,0H11.471" transform="translate(23.423 241)"/><path class="a" d="M0,0H11.471" transform="translate(23.423 312)"/><path class="a" d="M0,0H11.471" transform="translate(23.423 381)"/><path class="a" d="M0,0H11.471" transform="translate(23.423 452)"/><path class="a" d="M0,0H22.942" transform="translate(11.952 36)"/><path class="a" d="M0,0H22.942" transform="translate(11.952 107)"/><path class="a" d="M0,0H22.942" transform="translate(11.952 178)"/><path class="a" d="M0,0H22.942" transform="translate(11.952 249)"/><path class="a" d="M0,0H22.942" transform="translate(11.952 320)"/><path class="a" d="M0,0H22.942" transform="translate(11.952 389)"/><path class="a" d="M0,0H22.942" transform="translate(11.952 460)"/><path class="a" d="M0,0H11.471" transform="translate(23.423 43)"/><path class="a" d="M0,0H11.471" transform="translate(23.423 114)"/><path class="a" d="M0,0H11.471" transform="translate(23.423 185)"/><path class="a" d="M0,0H11.471" transform="translate(23.423 256)"/><path class="a" d="M0,0H11.471" transform="translate(23.423 327)"/><path class="a" d="M0,0H11.471" transform="translate(23.423 396)"/><path class="a" d="M0,0H11.471" transform="translate(23.423 467)"/><path class="a" d="M0,0H11.471" transform="translate(23.423 50)"/><path class="a" d="M0,0H11.471" transform="translate(23.423 121)"/><path class="a" d="M0,0H11.471" transform="translate(23.423 192)"/><path class="a" d="M0,0H11.471" transform="translate(23.423 263)"/><path class="a" d="M0,0H11.471" transform="translate(23.423 334)"/><path class="a" d="M0,0H11.471" transform="translate(23.423 403)"/><path class="a" d="M0,0H11.471" transform="translate(23.423 474)"/><path class="a" d="M0,0H11.471" transform="translate(23.423 57)"/><path class="a" d="M0,0H11.471" transform="translate(23.423 128)"/><path class="a" d="M0,0H11.471" transform="translate(23.423 199)"/><path class="a" d="M0,0H11.471" transform="translate(23.423 270)"/><path class="a" d="M0,0H11.471" transform="translate(23.423 341)"/><path class="a" d="M0,0H11.471" transform="translate(23.423 410)"/><path class="a" d="M0,0H11.471" transform="translate(23.423 481)"/><path class="a" d="M0,0H11.471" transform="translate(23.423 64)"/><path class="a" d="M0,0H11.471" transform="translate(23.423 135)"/><path class="a" d="M0,0H11.471" transform="translate(23.423 206)"/><path class="a" d="M0,0H11.471" transform="translate(23.423 277)"/><path class="a" d="M0,0H11.471" transform="translate(23.423 348)"/><path class="a" d="M0,0H11.471" transform="translate(23.423 417)"/><path class="a" d="M0,0H11.471" transform="translate(23.423 488)"/></g><g transform="translate(1483.553 4762.447) rotate(-90)"><path class="a" d="M0,0H34.895" transform="translate(0 71)"/><path class="a" d="M0,0H34.895" transform="translate(0 142)"/><path class="a" d="M0,0H34.895" transform="translate(0 213)"/><path class="a" d="M0,0H34.895" transform="translate(0 284)"/><path class="a" d="M0,0H34.895" transform="translate(0 355)"/><path class="a" d="M0,0H34.895" transform="translate(0 424)"/><path class="a" d="M0,0H34.895" transform="translate(0 495)"/><path class="a" d="M0,0H11.471" transform="translate(23.423 7)"/><path class="a" d="M0,0H11.471" transform="translate(23.423 78)"/><path class="a" d="M0,0H11.471" transform="translate(23.423 149)"/><path class="a" d="M0,0H11.471" transform="translate(23.423 220)"/><path class="a" d="M0,0H11.471" transform="translate(23.423 291)"/><path class="a" d="M0,0H11.471" transform="translate(23.423 360)"/><path class="a" d="M0,0H11.471" transform="translate(23.423 431)"/><path class="a" d="M0,0H11.471" transform="translate(23.423 14)"/><path class="a" d="M0,0H11.471" transform="translate(23.423 85)"/><path class="a" d="M0,0H11.471" transform="translate(23.423 156)"/><path class="a" d="M0,0H11.471" transform="translate(23.423 227)"/><path class="a" d="M0,0H11.471" transform="translate(23.423 298)"/><path class="a" d="M0,0H11.471" transform="translate(23.423 367)"/><path class="a" d="M0,0H11.471" transform="translate(23.423 438)"/><path class="a" d="M0,0H11.471" transform="translate(23.423 21)"/><path class="a" d="M0,0H11.471" transform="translate(23.423 92)"/><path class="a" d="M0,0H11.471" transform="translate(23.423 163)"/><path class="a" d="M0,0H11.471" transform="translate(23.423 234)"/><path class="a" d="M0,0H11.471" transform="translate(23.423 305)"/><path class="a" d="M0,0H11.471" transform="translate(23.423 374)"/><path class="a" d="M0,0H11.471" transform="translate(23.423 445)"/><path class="a" d="M0,0H11.471" transform="translate(23.423 28)"/><path class="a" d="M0,0H11.471" transform="translate(23.423 99)"/><path class="a" d="M0,0H11.471" transform="translate(23.423 170)"/><path class="a" d="M0,0H11.471" transform="translate(23.423 241)"/><path class="a" d="M0,0H11.471" transform="translate(23.423 312)"/><path class="a" d="M0,0H11.471" transform="translate(23.423 381)"/><path class="a" d="M0,0H11.471" transform="translate(23.423 452)"/><path class="a" d="M0,0H22.942" transform="translate(11.952 36)"/><path class="a" d="M0,0H22.942" transform="translate(11.952 107)"/><path class="a" d="M0,0H22.942" transform="translate(11.952 178)"/><path class="a" d="M0,0H22.942" transform="translate(11.952 249)"/><path class="a" d="M0,0H22.942" transform="translate(11.952 320)"/><path class="a" d="M0,0H22.942" transform="translate(11.952 389)"/><path class="a" d="M0,0H22.942" transform="translate(11.952 460)"/><path class="a" d="M0,0H11.471" transform="translate(23.423 43)"/><path class="a" d="M0,0H11.471" transform="translate(23.423 114)"/><path class="a" d="M0,0H11.471" transform="translate(23.423 185)"/><path class="a" d="M0,0H11.471" transform="translate(23.423 256)"/><path class="a" d="M0,0H11.471" transform="translate(23.423 327)"/><path class="a" d="M0,0H11.471" transform="translate(23.423 396)"/><path class="a" d="M0,0H11.471" transform="translate(23.423 467)"/><path class="a" d="M0,0H11.471" transform="translate(23.423 50)"/><path class="a" d="M0,0H11.471" transform="translate(23.423 121)"/><path class="a" d="M0,0H11.471" transform="translate(23.423 192)"/><path class="a" d="M0,0H11.471" transform="translate(23.423 263)"/><path class="a" d="M0,0H11.471" transform="translate(23.423 334)"/><path class="a" d="M0,0H11.471" transform="translate(23.423 403)"/><path class="a" d="M0,0H11.471" transform="translate(23.423 474)"/><path class="a" d="M0,0H11.471" transform="translate(23.423 57)"/><path class="a" d="M0,0H11.471" transform="translate(23.423 128)"/><path class="a" d="M0,0H11.471" transform="translate(23.423 199)"/><path class="a" d="M0,0H11.471" transform="translate(23.423 270)"/><path class="a" d="M0,0H11.471" transform="translate(23.423 341)"/><path class="a" d="M0,0H11.471" transform="translate(23.423 410)"/><path class="a" d="M0,0H11.471" transform="translate(23.423 481)"/><path class="a" d="M0,0H11.471" transform="translate(23.423 64)"/><path class="a" d="M0,0H11.471" transform="translate(23.423 135)"/><path class="a" d="M0,0H11.471" transform="translate(23.423 206)"/><path class="a" d="M0,0H11.471" transform="translate(23.423 277)"/><path class="a" d="M0,0H11.471" transform="translate(23.423 348)"/><path class="a" d="M0,0H11.471" transform="translate(23.423 417)"/><path class="a" d="M0,0H11.471" transform="translate(23.423 488)"/></g></g></svg>