<svg width="66" height="64" viewBox="0 0 66 64" fill="none" xmlns="http://www.w3.org/2000/svg">
<path d="M19.4584 53.9051L19.8101 54.2535L20.162 53.9054L51.8899 22.5221L52.2489 22.167L51.8902 21.8115L43.2609 13.2606L42.9093 12.9122L42.5574 13.2603L10.8295 44.6434L10.4704 44.9986L10.8292 45.3541L19.4584 53.9051ZM61.3098 13.131L61.6649 12.7759L61.3082 12.4223L52.6789 3.8713L52.3254 3.52097L51.9734 3.87291L45.6973 10.149L45.3421 10.5042L45.6989 10.8577L54.3281 19.4086L54.6817 19.7589L55.0336 19.407L61.3098 13.131ZM4.71289 59.4739V59.9739L5.21288 59.9739L10.1281 59.974C12.6327 59.974 15.036 58.985 16.815 57.2221L17.0205 57.0185L17.3789 56.6633L17.0205 56.3082L8.39123 47.7571L8.03929 47.4084L7.68735 47.7571L7.52603 47.917C5.72569 49.701 4.71289 52.1305 4.71289 54.665V59.4739ZM63.3038 9.58104C65.0805 11.3417 65.0805 14.2133 63.3038 15.974L19.4233 59.4562C16.8952 61.9614 13.4801 63.3668 9.921 63.3668H1.25977V54.9356C1.25977 51.3338 2.69903 47.8814 5.25743 45.3462L49.1595 1.84259C50.9135 0.10453 53.7404 0.104527 55.4944 1.84258L63.3038 9.58104Z" fill="url(#paint0_linear)" stroke="white"/>
<defs>
<linearGradient id="paint0_linear" x1="33.9998" y1="-2" x2="33.9998" y2="63.8668" gradientUnits="userSpaceOnUse">
<stop offset="0.296875" stop-color="#55287D"/>
<stop offset="1" stop-color="#CD2288"/>
</linearGradient>
</defs>
</svg>
