<svg width="80" height="80" viewBox="0 0 80 80" fill="none" xmlns="http://www.w3.org/2000/svg">
<path d="M72.0415 57.9368L73.6367 56.5185L73.6841 56.5326L76.7334 53.4819C78.6041 51.6139 79.6829 49.1206 79.7764 46.3697C79.8456 44.3556 79.0743 42.3889 77.6598 40.9744L77.4202 40.7335C77.3356 40.6489 77.2434 40.5733 77.155 40.4926V17.9285C77.1562 8.04241 69.1138 0 59.2277 0C50.4268 0 42.9904 6.30119 41.5426 14.9817L38.8482 31.1485C38.7623 31.6635 38.7188 32.1901 38.7188 32.7116V33.0422C38.7188 34.1799 38.9443 35.2907 39.335 36.3439L17.3693 38.1403C16.5249 37.5278 15.4961 37.1562 14.375 37.1562C11.5486 37.1562 9.25 39.4548 9.25 42.2812C9.25 43.5689 9.74328 44.7336 10.5312 45.6356V76.875H0.28125V79.4375H43.8438H46.4062H79.7188V78.1562C79.7188 72.939 77.3215 68.9774 75.2075 65.4808C73.547 62.739 72.1184 60.3584 72.0415 57.9368ZM63.8735 61.7703C62.2079 63.2489 60.0644 64.0689 57.8388 64.0779C57.8273 64.0779 57.8171 64.0779 57.8055 64.0779C55.0137 64.0779 52.4153 62.8287 50.6702 60.648L44.1282 52.471L48.6946 49.209L54.965 57.5691L53.1879 59.3462L54.9996 61.1579L57.0317 59.1258C57.3251 58.8324 57.6479 58.5659 57.9926 58.3353L64.5628 53.9278L70.718 55.687L63.8735 61.7703ZM47.2519 69.0222C43.2006 66.4828 40.3203 62.4315 39.312 57.728L38.8469 55.5588C38.7623 55.1604 38.7188 54.7504 38.7188 54.3442C38.7188 53.1706 39.089 52.0405 39.7386 51.086L48.6689 62.2495C49.2724 63.0029 49.9592 63.6615 50.7048 64.2329C49.8387 65.2912 48.5152 67.0107 47.2519 69.0222ZM19.1822 40.5644L39.6092 38.8936L37.6835 41.524L37.6899 41.5292L37.6117 41.6073L19.418 43.0884C19.4603 42.8245 19.5 42.558 19.5 42.2812C19.5 41.6765 19.3757 41.1038 19.1822 40.5644ZM44.6471 36.3529C45.239 37.4381 46.1257 38.3247 47.2109 38.9154L45.0212 40.5182C44.7073 40.5721 44.3947 40.6489 44.091 40.7732C43.5119 40.2902 42.8047 40.0006 42.0667 39.8776L44.6471 36.3529ZM52.9188 19.5262L60.7947 20.1323C62.7845 20.2847 64.3438 21.9696 64.3438 23.9645V34.3862C64.3438 36.8411 64.7038 39.2729 65.3816 41.6304C65.3623 41.6573 65.3406 41.6816 65.3226 41.7085C64.9447 42.2761 64.6577 42.9014 64.4488 43.551C63.2496 43.5484 62.0618 42.9539 61.3789 41.9289L60.5 40.6118V36.0698L58.1668 35.6815C57.5339 35.5752 56.9356 35.3727 56.3731 35.0934C56.5397 34.5246 56.6562 33.9352 56.6562 33.3125C56.6562 30.6923 55.0713 28.4412 52.8125 27.4495V19.5083C52.8484 19.5122 52.8817 19.5237 52.9188 19.5262ZM56.9522 55.9483L52.8676 50.5018C53.0726 48.717 53.9541 47.0578 55.3417 45.9008L58.9446 42.8988L59.2469 43.3511C60.3181 44.9591 62.0606 45.9559 63.9696 46.0981L63.1573 51.7868L56.9522 55.9483ZM48.9406 41.7547C48.7548 41.5689 48.5536 41.4087 48.3448 41.2614L50.4845 39.6957C52.3782 39.6252 54.0476 38.7296 55.1764 37.3587C55.981 37.7661 56.8382 38.0583 57.7453 38.2107L57.9375 38.2427V40.4004L53.7004 43.9315C52.4333 44.9885 51.4723 46.3505 50.8906 47.8675L50.25 47.0116V44.9168C50.25 43.7239 49.7849 42.6003 48.9406 41.7547ZM54.0938 33.3125C54.0938 35.4317 52.3692 37.1562 50.25 37.1562C48.1308 37.1562 46.4062 35.4317 46.4062 33.3125C46.4062 31.1933 48.1308 29.4688 50.25 29.4688C52.3692 29.4688 54.0938 31.1933 54.0938 33.3125ZM38.7188 44.8758C38.7188 44.3992 38.9122 43.9328 39.2492 43.5958L40 42.845C40.6739 42.1698 41.8847 42.1685 42.5625 42.8463L43.5901 43.8713L44.92 43.2076C45.6554 42.8399 46.5446 42.9821 47.1263 43.5651C47.4825 43.9225 47.6875 44.4145 47.6875 44.9181V46.781L42.5253 50.4684L39.1159 46.207C38.8597 45.8854 38.7188 45.4844 38.7188 45.0731V44.8758ZM74.923 51.6702L72.9397 53.6549L65.7698 51.6062L66.6987 45.1051C66.7999 44.403 67.06 43.7201 67.4533 43.1294C68.3425 41.7957 69.8301 41 71.4316 41H71.8762C73.2651 41 74.6258 41.5638 75.6085 42.5452L75.8481 42.7861C76.7629 43.7009 77.2626 44.9757 77.2126 46.3774C77.146 48.3826 76.3324 50.2622 74.923 51.6702ZM41.2812 32.7116C41.2812 32.3298 41.3133 31.9454 41.3761 31.5687L44.0705 15.4019C45.3108 7.96297 51.685 2.5625 59.2277 2.5625C67.7006 2.5625 74.5938 9.45563 74.5938 17.9285V38.9282C73.734 38.6117 72.8192 38.4375 71.8762 38.4375H71.4316C70.0094 38.4375 68.6526 38.8565 67.4918 39.597C67.1074 37.8878 66.9062 36.1441 66.9062 34.3862V23.9645C66.9062 20.6371 64.3079 17.8324 60.9907 17.5775L53.1149 16.9714C51.5082 16.8472 50.25 15.489 50.25 13.8772C50.25 12.8368 50.7663 11.8733 51.6325 11.2955L53.5236 10.0347L52.1027 7.90275L50.2116 9.1635C48.6305 10.218 47.6875 11.9797 47.6875 13.8772C47.6875 15.8298 48.7112 17.5634 50.25 18.5845V26.9062C46.7983 26.9062 43.9937 29.6571 43.8668 33.0793L41.8642 35.8148C41.485 34.9422 41.2812 34.0031 41.2812 33.0422V32.7116ZM14.375 39.7188C15.7882 39.7188 16.9375 40.868 16.9375 42.2812C16.9375 43.6945 15.7882 44.8438 14.375 44.8438C12.9618 44.8438 11.8125 43.6945 11.8125 42.2812C11.8125 40.868 12.9618 39.7188 14.375 39.7188ZM13.0938 47.2243C13.5063 47.3319 13.9304 47.4062 14.375 47.4062C14.8196 47.4062 15.2437 47.3319 15.6562 47.2243V76.875H13.0938V47.2243ZM18.2188 76.875V45.7586L36.2126 44.2928C36.187 44.4863 36.1562 44.6772 36.1562 44.8758V45.0718C36.1562 46.0597 36.4971 47.0308 37.1146 47.806L38.0845 49.0193C36.8532 50.5082 36.1562 52.389 36.1562 54.3442C36.1562 54.931 36.219 55.5204 36.342 56.0957L36.8071 58.2661C37.9679 63.6781 41.2941 68.3355 45.9719 71.2388C44.9969 73.0838 44.2102 75.0364 43.945 76.8737H18.2188V76.875ZM46.5344 76.875C47.2596 73.0069 50.8791 68.0139 52.9214 65.5693C54.4307 66.2624 56.0874 66.6404 57.8055 66.6404H57.8478C60.6999 66.6288 63.4443 65.5795 65.5763 63.6845L69.7519 59.9727C70.3118 62.3328 71.6315 64.5225 73.0153 66.8082C74.8538 69.8461 76.7501 72.9787 77.0999 76.8737H46.5344V76.875Z" fill="url(#paint0_linear)"/>
<defs>
<linearGradient id="paint0_linear" x1="40.031" y1="0" x2="40.031" y2="79.4375" gradientUnits="userSpaceOnUse">
<stop offset="0.65625" stop-color="#55287D"/>
<stop offset="1" stop-color="#CD2288"/>
</linearGradient>
</defs>
</svg>
