<svg width="941" height="655" viewBox="0 0 941 655" fill="none" xmlns="http://www.w3.org/2000/svg">
<path opacity="0.7" d="M1 654C19.6086 610.059 80.9029 525.46 177.39 525.46C258.5 525.46 320 598.174 389.434 598.174C456.328 598.174 541.583 536 548.467 500.597C555.035 466.82 515.629 398.797 548.467 353.761C590.542 296.059 719.5 301.219 775.992 301.219C803 301.219 853.679 304.034 881.076 260.875C908.472 217.715 918.449 100.591 920.013 47.4233" stroke="url(#paint0_linear)" stroke-width="2"/>
<path d="M920.162 2.85645C919.075 14.2941 919.9 34.4951 902.5 40.4999L920.162 2.85645L938.5 36.4999C921.181 39.0613 920.53 15.9416 920.167 3.03758L920.162 2.85645Z" fill="#C715B2"/>
<path d="M920.013 47.8923L920.162 2.85645M920.162 2.85645C919.075 14.2941 919.9 34.4951 902.5 40.4999L920.162 2.85645ZM920.162 2.85645C920.525 15.7238 921.1 39.0734 938.5 36.4999L920.162 2.85645Z" stroke="#C715B2" stroke-width="2"/>
<defs>
<linearGradient id="paint0_linear" x1="0.999996" y1="309.5" x2="920" y2="308" gradientUnits="userSpaceOnUse">
<stop stop-color="#08F4EA"/>
<stop offset="1" stop-color="#F80CC9"/>
</linearGradient>
</defs>
</svg>
