<svg width="1171" height="456" viewBox="0 0 1171 456" fill="none" xmlns="http://www.w3.org/2000/svg">
<path d="M1155.96 18.0455C1147.96 26.2905 1135.97 42.5701 1118.64 36.3742L1155.96 18.0455L1149.23 55.7663C1134.12 46.9343 1148.07 28.4864 1155.85 18.19L1155.96 18.0455Z" fill="#D630A9"/>
<path d="M1127.68 53.0948L1155.96 18.0455M1155.96 18.0455C1147.96 26.2905 1135.97 42.5701 1118.64 36.3742L1155.96 18.0455ZM1155.96 18.0455C1148.2 28.3129 1134.05 46.8928 1149.23 55.7663L1155.96 18.0455Z" stroke="#CD2288" stroke-width="20"/>
<path d="M10 456C10 430.813 59.4985 387.212 96.1939 381.306C132.889 375.4 179.867 376.529 213.639 381.306C237.239 384.644 289.651 390.513 319.491 354.382C349.332 318.251 376.954 297.736 431.896 316.166C450.883 322.535 493.895 333.362 514.058 325.719C534.22 318.077 555.054 284.03 562.951 267.962C570.208 253.197 600.957 231.831 652.169 257.539C703.382 283.248 742.06 254.355 754.997 236.695C774.656 211.942 804.193 160.698 843.711 160.698C883.229 160.698 911.255 177.2 933.938 177.2C959.645 177.2 1001.18 163.825 1034.25 141.591C1067.31 119.356 1111.53 71.7658 1129 51.5" stroke="url(#paint0_linear)" stroke-width="20"/>
<path d="M10 456C10 430.813 59.4985 387.212 96.1939 381.306C132.889 375.4 179.867 376.529 213.639 381.306C237.239 384.644 289.651 390.513 319.491 354.382C349.332 318.251 376.954 297.736 431.896 316.166C450.883 322.535 493.895 333.362 514.058 325.719C534.22 318.077 555.054 284.03 562.951 267.962C570.208 253.197 600.957 231.831 652.169 257.539C703.382 283.248 742.06 254.355 754.997 236.695C774.656 211.942 804.193 160.698 843.711 160.698C883.229 160.698 911.255 177.2 933.938 177.2C959.645 177.2 1001.18 163.825 1034.25 141.591C1067.31 119.356 1111.53 71.7658 1129 51.5" stroke="#CD2288" stroke-width="20"/>
<defs>
<linearGradient id="paint0_linear" x1="10" y1="222" x2="1129" y2="207.5" gradientUnits="userSpaceOnUse">
<stop stop-color="#CD2288"/>
<stop offset="1" stop-color="#D72FA9"/>
</linearGradient>
</defs>
</svg>
