<svg xmlns="http://www.w3.org/2000/svg" width="196.49" height="23.076" viewBox="0 0 196.49 23.076">
  <g id="Group_257" data-name="Group 257" transform="translate(-281.98 -28.32)">
    <path id="Path_169" data-name="Path 169" d="M26.961,0V-22.011H19.074l-4.62,11.946L9.867-22.011H1.98V0H7.656V-14.322L13.2,0h2.508l5.577-14.322V0ZM36.6,0V-22.011H30.921V0ZM59.334,0,54.846-8.085a6.669,6.669,0,0,0,4.389-6.6c0-4.092-2.772-7.326-7.656-7.326H40.557V0h5.676V-7.392h2.9L52.833,0ZM50.721-12.342H46.233v-4.719h4.488a2.459,2.459,0,0,1,2.739,2.343A2.445,2.445,0,0,1,50.721-12.342ZM64.812.4a3.141,3.141,0,0,0,3.1-3.1,3.141,3.141,0,0,0-3.1-3.1,3.141,3.141,0,0,0-3.1,3.1A3.141,3.141,0,0,0,64.812.4Z" transform="translate(280 51)" fill="#fff"/>
    <path id="Path_168" data-name="Path 168" d="M-126.84-5.94h11.94L-112.44,0h1.23l-8.94-21.24h-1.23L-130.56,0h1.23Zm6.03-14.28,5.49,13.29h-11.1Zm13.08,9.72V0h1.11V-6.84c0-3.57,1.62-6.45,4.68-6.45a4.978,4.978,0,0,1,.72.06l.09-.99a3.553,3.553,0,0,0-.81-.06,4.854,4.854,0,0,0-4.68,3.66h-.06c0-.9-.06-2.49-.12-3.24h-1.05C-107.76-13.05-107.73-11.34-107.73-10.5Zm19.98-1.8a6.114,6.114,0,0,0-4.65-1.98,7.014,7.014,0,0,0-7.17,7.35A6.972,6.972,0,0,0-92.4.39a6.31,6.31,0,0,0,4.77-1.92l-.66-.66A5.885,5.885,0,0,1-92.4-.57c-3.69,0-6.03-2.85-6.03-6.36,0-3.48,2.34-6.42,6.03-6.42a5.169,5.169,0,0,1,3.9,1.74Zm5.01,1.65V-22.68h-1.08V0h1.08V-6.57c0-4.5,2.34-6.78,5.1-6.78,3.33,0,4.17,2.73,4.17,5.22V0h1.08V-8.43c0-3.06-1.32-5.85-5.07-5.85a5.506,5.506,0,0,0-5.22,3.63Zm17.19-3.21h-1.08V0h1.08Zm.36-5.82a.957.957,0,0,0-.9-.96.961.961,0,0,0-.93.96.949.949,0,0,0,.93.99A.945.945,0,0,0-65.19-19.68Zm11.1,5.82h-4.02v-4.05h-1.11v4.05h-2.94v.9h2.97v9.9A3.016,3.016,0,0,0-55.95.3a5.469,5.469,0,0,0,1.92-.36l-.09-.93a3.966,3.966,0,0,1-1.59.33c-1.41,0-2.4-.66-2.4-2.58v-9.72h4.02Zm3.66,6.09c.06-2.16,1.86-5.58,5.58-5.58,3.24,0,5.34,2.28,5.43,5.58ZM-44.58.39a6.9,6.9,0,0,0,5.7-2.76L-39.63-3A6.166,6.166,0,0,1-44.58-.54c-3.81,0-5.85-3.15-5.88-6.33h12.09c0-.21.03-.45.03-.66,0-3.48-2.19-6.75-6.51-6.75-3.78,0-6.72,3.03-6.72,7.23C-51.57-2.73-48.69.39-44.58.39ZM-22.92-12.3a6.114,6.114,0,0,0-4.65-1.98,7.014,7.014,0,0,0-7.17,7.35A6.972,6.972,0,0,0-27.57.39,6.31,6.31,0,0,0-22.8-1.53l-.66-.66A5.884,5.884,0,0,1-27.57-.57c-3.69,0-6.03-2.85-6.03-6.36,0-3.48,2.34-6.42,6.03-6.42a5.169,5.169,0,0,1,3.9,1.74Zm9.48-1.56h-4.02v-4.05h-1.11v4.05h-2.94v.9h2.97v9.9A3.016,3.016,0,0,0-15.3.3a5.469,5.469,0,0,0,1.92-.36l-.09-.93a3.966,3.966,0,0,1-1.59.33c-1.41,0-2.4-.66-2.4-2.58v-9.72h4.02Zm11.55,1.74a4.979,4.979,0,0,0-4.38-2.16c-2.22,0-4.47,1.2-4.47,3.72,0,2.07,1.41,3.06,3.75,3.66,2.13.54,4.38,1.05,4.38,3.27,0,2.07-1.89,3.06-3.66,3.06a5,5,0,0,1-4.2-2.13l-.87.63A6,6,0,0,0-6.27.36c2.49,0,4.74-1.38,4.74-4.08,0-2.37-1.89-3.3-4.41-3.9-2.61-.63-3.72-1.29-3.72-2.94,0-2.07,1.89-2.79,3.36-2.79a4.049,4.049,0,0,1,3.6,1.83Z" transform="translate(480 51)" fill="#e2bc52"/>
  </g>
</svg>
