<svg width="100" height="50" viewBox="0 0 100 50" fill="none" xmlns="http://www.w3.org/2000/svg">
<path d="M98.7874 23.8495L98.7868 23.8492L52.3602 0.636001C52.3602 0.63599 52.3602 0.63598 52.3602 0.635969C51.7251 0.318607 50.953 0.576197 50.6356 1.21138L50.6356 1.21143C50.5463 1.38997 50.4999 1.58696 50.5 1.78675L50.5 1.78694V48.2135V48.2137C50.4997 48.9238 51.0749 49.4996 51.785 49.5L98.7874 23.8495ZM98.7874 23.8495C99.0374 23.9741 99.24 24.1767 99.3646 24.4267C99.6812 25.0622 99.4229 25.8341 98.7874 26.1509L98.7868 26.1511M98.7874 23.8495L98.7868 26.1511M98.7868 26.1511L52.3603 49.3644M98.7868 26.1511L52.3603 49.3644M52.3603 49.3644C52.1818 49.4536 51.9849 49.5001 51.7851 49.5L52.3603 49.3644ZM53.0712 45.3243V46.1333L53.7948 45.7715L94.4432 25.4474L95.3376 25.0002L94.4432 24.5529L53.7948 4.22879L53.0712 3.86699V4.67601V45.3243Z" fill="#55287D" stroke="#55287D"/>
<g clip-path="url(#clip0)">
<path d="M48.7874 23.8495L48.7868 23.8492L2.36023 0.636001C2.36021 0.63599 2.36018 0.63598 2.36016 0.635969C1.72513 0.318607 0.952971 0.576197 0.635606 1.21138L0.63558 1.21143C0.546349 1.38997 0.499925 1.58696 0.5 1.78675L0.5 1.78694V48.2135V48.2137C0.499699 48.9238 1.07495 49.4996 1.78502 49.5L48.7874 23.8495ZM48.7874 23.8495C49.0374 23.9741 49.24 24.1767 49.3646 24.4267C49.6812 25.0622 49.4229 25.8341 48.7874 26.1509L48.7868 26.1511M48.7874 23.8495L48.7868 26.1511M48.7868 26.1511L2.36035 49.3644M48.7868 26.1511L2.36035 49.3644M2.36035 49.3644C2.18184 49.4536 1.98487 49.5001 1.7851 49.5L2.36035 49.3644ZM3.07124 45.3243V46.1333L3.79485 45.7715L44.4432 25.4474L45.3376 25.0002L44.4432 24.5529L3.79485 4.22879L3.07124 3.86699V4.67601V45.3243Z" fill="#55287D" stroke="#55287D"/>
</g>
<rect width="49.9999" height="49.9999" stroke="#55287D"/>
<defs>
<clipPath id="clip0">
</clipPath>
</defs>
</svg>
